<?xml version="1.0" encoding="utf-8"?>
<svg id="svg" version="1.1" xmlns="http://www.w3.org/2000/svg" style="display: block;" viewBox="0 0 417 402">
  <path d="M 82.031 113.692 C 87.204 103.347 333.894 105.138 330.171 134.32 C 350.432 131.677 355.896 326.125 347.921 327.165 L 82.031 330.043 L 82.031 113.692 Z" style="fill: rgb(252, 208, 76);"/>
  <path d="M0,0 L4,0 L4,1 L29,1 L29,2 L37,2 L37,3 L44,3 L44,4 L48,4 L48,5 L54,5 L54,6 L57,6 L57,7 L60,7 L60,8 L64,8 L64,9 L67,9 L67,10 L70,10 L70,11 L74,11 L74,12 L76,12 L76,13 L79,13 L79,14 L82,14 L82,15 L85,15 L85,16 L87,16 L87,17 L89,17 L89,18 L92,18 L92,19 L94,19 L94,20 L96,20 L96,21 L98,21 L98,22 L100,22 L100,23 L101,23 L101,24 L103,24 L103,25 L105,25 L105,26 L107,26 L107,27 L108,27 L108,28 L110,28 L110,29 L111,29 L111,30 L113,30 L113,31 L114,31 L114,32 L116,32 L116,33 L117,33 L117,34 L119,34 L119,35 L120,35 L120,36 L122,36 L122,37 L123,37 L123,38 L124,38 L124,39 L125,39 L125,40 L127,40 L127,41 L128,41 L128,42 L129,42 L129,43 L130,43 L130,44 L131,44 L131,45 L133,45 L133,46 L134,46 L134,47 L135,47 L135,48 L136,48 L136,49 L137,49 L137,50 L138,50 L138,51 L139,51 L139,52 L140,52 L140,53 L141,53 L141,54 L142,54 L142,55 L143,55 L143,56 L144,56 L144,57 L145,57 L145,58 L146,58 L146,59 L147,59 L147,60 L148,60 L148,61 L149,61 L149,62 L150,62 L150,64 L151,64 L151,65 L152,65 L152,66 L153,66 L153,67 L154,67 L154,68 L155,68 L155,70 L156,70 L156,71 L157,71 L157,72 L158,72 L158,73 L159,73 L159,75 L160,75 L160,77 L161,77 L161,78 L162,78 L162,80 L163,80 L163,83 L164,83 L164,85 L165,85 L165,87 L166,87 L166,89 L167,89 L167,91 L168,91 L168,94 L166,94 L166,95 L165,95 L165,96 L164,96 L164,97 L163,97 L163,98 L162,98 L162,99 L161,99 L161,100 L160,100 L160,101 L159,101 L159,102 L158,102 L158,103 L157,103 L157,105 L156,105 L156,106 L155,106 L155,109 L154,109 L154,110 L153,110 L153,115 L152,115 L152,130 L154,130 L154,126 L155,126 L155,123 L156,123 L156,122 L157,122 L157,118 L158,118 L158,117 L159,117 L159,115 L160,115 L160,113 L161,113 L161,111 L162,111 L162,110 L163,110 L163,108 L164,108 L164,107 L165,107 L165,106 L166,106 L166,105 L167,105 L167,103 L168,103 L168,102 L169,102 L169,101 L170,101 L170,100 L171,100 L171,99 L172,99 L172,98 L173,98 L173,97 L175,97 L175,96 L176,96 L176,95 L177,95 L177,94 L179,94 L179,93 L181,93 L181,92 L182,92 L182,91 L185,91 L185,90 L188,90 L188,89 L199,89 L199,90 L201,90 L201,91 L203,91 L203,92 L204,92 L204,93 L206,93 L206,94 L207,94 L207,95 L208,95 L208,96 L209,96 L209,97 L210,97 L210,99 L211,99 L211,101 L212,101 L212,116 L211,116 L211,120 L210,120 L210,123 L209,123 L209,124 L208,124 L208,126 L207,126 L207,129 L206,129 L206,130 L205,130 L205,132 L204,132 L204,134 L203,134 L203,135 L202,135 L202,136 L201,136 L201,137 L200,137 L200,138 L199,138 L199,139 L198,139 L198,140 L197,140 L197,141 L196,141 L196,142 L195,142 L195,143 L193,143 L193,144 L192,144 L192,145 L191,145 L191,146 L189,146 L189,147 L188,147 L188,148 L186,148 L186,149 L185,149 L185,150 L183,150 L183,151 L181,151 L181,152 L178,152 L178,153 L175,153 L175,154 L173,154 L173,155 L169,155 L169,156 L180,156 L180,160 L179,160 L179,168 L178,168 L178,172 L177,172 L177,176 L176,176 L176,177 L175,177 L175,181 L174,181 L174,185 L173,185 L173,188 L172,188 L172,190 L174,190 L174,192 L173,192 L173,195 L172,195 L172,198 L171,198 L171,201 L170,201 L170,204 L169,204 L169,209 L168,209 L168,210 L167,210 L167,214 L166,214 L166,215 L165,215 L165,218 L164,218 L164,220 L163,220 L163,222 L162,222 L162,224 L161,224 L161,226 L160,226 L160,227 L159,227 L159,229 L158,229 L158,231 L157,231 L157,233 L156,233 L156,235 L155,235 L155,236 L154,236 L154,238 L153,238 L153,239 L152,239 L152,240 L151,240 L151,242 L150,242 L150,243 L149,243 L149,245 L148,245 L148,246 L147,246 L147,247 L146,247 L146,248 L145,248 L145,249 L144,249 L144,250 L143,250 L143,252 L142,252 L142,253 L141,253 L141,254 L140,254 L140,255 L139,255 L139,256 L138,256 L138,257 L137,257 L137,258 L136,258 L136,259 L135,259 L135,260 L134,260 L134,261 L132,261 L132,262 L131,262 L131,263 L130,263 L130,264 L129,264 L129,265 L128,265 L128,266 L127,266 L127,267 L125,267 L125,268 L124,268 L124,269 L123,269 L123,270 L122,270 L122,271 L120,271 L120,272 L119,272 L119,273 L117,273 L117,274 L116,274 L116,275 L114,275 L114,276 L113,276 L113,277 L111,277 L111,278 L109,278 L109,279 L108,279 L108,280 L106,280 L106,281 L104,281 L104,282 L103,282 L103,283 L101,283 L101,284 L99,284 L99,285 L97,285 L97,286 L95,286 L95,287 L93,287 L93,288 L91,288 L91,289 L89,289 L89,290 L87,290 L87,291 L85,291 L85,292 L81,292 L81,293 L80,293 L80,294 L75,294 L75,295 L74,295 L74,296 L69,296 L69,297 L66,297 L66,298 L64,298 L64,299 L60,299 L60,300 L55,300 L55,301 L50,301 L50,302 L45,302 L45,303 L40,303 L40,304 L28,304 L28,305 L-8,305 L-8,304 L-16,304 L-16,303 L-21,303 L-21,302 L-27,302 L-27,301 L-31,301 L-31,300 L-35,300 L-35,299 L-39,299 L-39,298 L-43,298 L-43,297 L-46,297 L-46,296 L-51,296 L-51,295 L-53,295 L-53,294 L-57,294 L-57,293 L-60,293 L-60,292 L-61,292 L-61,291 L-65,291 L-65,290 L-66,290 L-66,289 L-70,289 L-70,288 L-72,288 L-72,287 L-74,287 L-74,286 L-76,286 L-76,285 L-78,285 L-78,284 L-80,284 L-80,283 L-82,283 L-82,282 L-84,282 L-84,281 L-86,281 L-86,280 L-88,280 L-88,279 L-90,279 L-90,278 L-91,278 L-91,277 L-93,277 L-93,276 L-95,276 L-95,275 L-96,275 L-96,274 L-98,274 L-98,273 L-99,273 L-99,272 L-101,272 L-101,271 L-102,271 L-102,270 L-104,270 L-104,269 L-105,269 L-105,268 L-106,268 L-106,267 L-108,267 L-108,266 L-109,266 L-109,265 L-111,265 L-111,264 L-112,264 L-112,263 L-113,263 L-113,262 L-115,262 L-115,261 L-116,261 L-116,260 L-117,260 L-117,259 L-118,259 L-118,258 L-119,258 L-119,257 L-120,257 L-120,256 L-121,256 L-121,255 L-123,255 L-123,254 L-124,254 L-124,253 L-125,253 L-125,252 L-126,252 L-126,251 L-127,251 L-127,250 L-128,250 L-128,249 L-129,249 L-129,248 L-130,248 L-130,247 L-131,247 L-131,245 L-132,245 L-132,244 L-133,244 L-133,243 L-134,243 L-134,242 L-133,242 L-133,241 L-132,241 L-132,239 L-131,239 L-131,238 L-130,238 L-130,237 L-129,237 L-129,236 L-128,236 L-128,234 L-127,234 L-127,232 L-126,232 L-126,230 L-125,230 L-125,229 L-124,229 L-124,225 L-123,225 L-123,214 L-124,214 L-124,210 L-125,210 L-125,209 L-126,209 L-126,214 L-127,214 L-127,217 L-128,217 L-128,220 L-129,220 L-129,221 L-130,221 L-130,223 L-131,223 L-131,225 L-132,225 L-132,226 L-133,226 L-133,228 L-134,228 L-134,229 L-135,229 L-135,231 L-136,231 L-136,232 L-137,232 L-137,233 L-138,233 L-138,234 L-139,234 L-139,236 L-140,236 L-140,237 L-141,237 L-141,238 L-142,238 L-142,239 L-143,239 L-143,240 L-144,240 L-144,241 L-146,241 L-146,242 L-147,242 L-147,243 L-148,243 L-148,244 L-149,244 L-149,245 L-151,245 L-151,246 L-152,246 L-152,247 L-154,247 L-154,248 L-156,248 L-156,249 L-158,249 L-158,250 L-162,250 L-162,251 L-174,251 L-174,250 L-176,250 L-176,249 L-178,249 L-178,248 L-179,248 L-179,247 L-181,247 L-181,246 L-182,246 L-182,245 L-183,245 L-183,243 L-184,243 L-184,241 L-185,241 L-185,239 L-186,239 L-186,238 L-187,238 L-187,226 L-186,226 L-186,221 L-185,221 L-185,218 L-184,218 L-184,216 L-183,216 L-183,214 L-182,214 L-182,212 L-181,212 L-181,211 L-180,211 L-180,209 L-179,209 L-179,208 L-178,208 L-178,207 L-177,207 L-177,205 L-176,205 L-176,204 L-175,204 L-175,203 L-174,203 L-174,202 L-173,202 L-173,201 L-172,201 L-172,200 L-171,200 L-171,199 L-170,199 L-170,198 L-169,198 L-169,197 L-167,197 L-167,196 L-166,196 L-166,195 L-165,195 L-165,194 L-163,194 L-163,193 L-162,193 L-162,192 L-160,192 L-160,191 L-158,191 L-158,190 L-156,190 L-156,189 L-153,189 L-153,188 L-151,188 L-151,187 L-147,187 L-147,186 L-143,186 L-143,184 L-153,184 L-153,185 L-155,185 L-155,186 L-157,186 L-157,187 L-160,187 L-160,188 L-162,188 L-162,189 L-164,189 L-164,190 L-166,190 L-166,188 L-167,188 L-167,183 L-168,183 L-168,180 L-169,180 L-169,176 L-170,176 L-170,171 L-171,171 L-171,135 L-170,135 L-170,130 L-169,130 L-169,125 L-168,125 L-168,123 L-167,123 L-167,118 L-166,118 L-166,114 L-165,114 L-165,111 L-164,111 L-164,108 L-163,108 L-163,106 L-162,106 L-162,104 L-161,104 L-161,102 L-160,102 L-160,100 L-159,100 L-159,98 L-158,98 L-158,95 L-157,95 L-157,93 L-156,93 L-156,91 L-155,91 L-155,90 L-154,90 L-154,88 L-153,88 L-153,87 L-152,87 L-152,85 L-151,85 L-151,84 L-150,84 L-150,82 L-149,82 L-149,81 L-148,81 L-148,79 L-147,79 L-147,78 L-146,78 L-146,77 L-145,77 L-145,76 L-144,76 L-144,74 L-143,74 L-143,73 L-142,73 L-142,72 L-141,72 L-141,71 L-140,71 L-140,70 L-139,70 L-139,68 L-138,68 L-138,67 L-137,67 L-137,66 L-136,66 L-136,65 L-135,65 L-135,64 L-134,64 L-134,63 L-133,63 L-133,62 L-132,62 L-132,61 L-131,61 L-131,60 L-130,60 L-130,59 L-129,59 L-129,58 L-128,58 L-128,57 L-127,57 L-127,56 L-125,56 L-125,55 L-124,55 L-124,54 L-123,54 L-123,53 L-120,53 L-120,52 L-119,52 L-119,51 L-118,51 L-118,50 L-117,50 L-117,49 L-115,49 L-115,48 L-114,48 L-114,47 L-113,47 L-113,46 L-112,46 L-112,45 L-111,45 L-111,44 L-110,44 L-110,43 L-109,43 L-109,42 L-108,42 L-108,41 L-107,41 L-107,40 L-106,40 L-106,39 L-105,39 L-105,38 L-104,38 L-104,37 L-102,37 L-102,36 L-101,36 L-101,35 L-99,35 L-99,34 L-98,34 L-98,33 L-96,33 L-96,32 L-95,32 L-95,31 L-93,31 L-93,30 L-91,30 L-91,29 L-90,29 L-90,28 L-88,28 L-88,27 L-86,27 L-86,26 L-84,26 L-84,25 L-83,25 L-83,24 L-81,24 L-81,23 L-79,23 L-79,22 L-78,22 L-78,21 L-76,21 L-76,20 L-74,20 L-74,19 L-72,19 L-72,18 L-68,18 L-68,17 L-65,17 L-65,16 L-63,16 L-63,15 L-60,15 L-60,14 L-58,14 L-58,13 L-56,13 L-56,12 L-53,12 L-53,11 L-51,11 L-51,10 L-48,10 L-48,9 L-44,9 L-44,8 L-41,8 L-41,7 L-38,7 L-38,6 L-34,6 L-34,5 L-28,5 L-28,4 L-25,4 L-25,3 L-17,3 L-17,2 L-9,2 L-9,1 L0,1 Z M0,26 L0,27 L-3,27 L-3,28 L-10,28 L-10,29 L-16,29 L-16,30 L-21,30 L-21,31 L-27,31 L-27,32 L-29,32 L-29,33 L-34,33 L-34,34 L-36,34 L-36,35 L-40,35 L-40,36 L-43,36 L-43,37 L-44,37 L-44,38 L-46,38 L-46,39 L-48,39 L-48,40 L-50,40 L-50,41 L-51,41 L-51,42 L-53,42 L-53,43 L-55,43 L-55,44 L-56,44 L-56,45 L-58,45 L-58,46 L-60,46 L-60,47 L-61,47 L-61,48 L-63,48 L-63,49 L-65,49 L-65,50 L-67,50 L-67,51 L-68,51 L-68,52 L-70,52 L-70,53 L-71,53 L-71,54 L-73,54 L-73,55 L-75,55 L-75,56 L-76,56 L-76,57 L-78,57 L-78,58 L-79,58 L-79,59 L-80,59 L-80,60 L-82,60 L-82,61 L-83,61 L-83,62 L-84,62 L-84,63 L-85,63 L-85,64 L-86,64 L-86,65 L-87,65 L-87,66 L-88,66 L-88,68 L-89,68 L-89,69 L-90,69 L-90,70 L-91,70 L-91,71 L-92,71 L-92,73 L-93,73 L-93,74 L-94,74 L-94,75 L-95,75 L-95,76 L-96,76 L-96,77 L-97,77 L-97,79 L-98,79 L-98,80 L-99,80 L-99,81 L-100,81 L-100,82 L-101,82 L-101,83 L-102,83 L-102,85 L-103,85 L-103,86 L-104,86 L-104,87 L-105,87 L-105,88 L-106,88 L-106,90 L-107,90 L-107,91 L-108,91 L-108,92 L-109,92 L-109,94 L-110,94 L-110,96 L-111,96 L-111,97 L-112,97 L-112,99 L-113,99 L-113,102 L-114,102 L-114,109 L-115,109 L-115,113 L-116,113 L-116,118 L-117,118 L-117,122 L-118,122 L-118,127 L-119,127 L-119,134 L-120,134 L-120,143 L-119,143 L-119,150 L-118,150 L-118,155 L-117,155 L-117,159 L-116,159 L-116,163 L-115,163 L-115,165 L-114,165 L-114,168 L-113,168 L-113,170 L-112,170 L-112,173 L-111,173 L-111,175 L-110,175 L-110,177 L-109,177 L-109,179 L-108,179 L-108,181 L-107,181 L-107,183 L-106,183 L-106,185 L-105,185 L-105,186 L-104,186 L-104,188 L-103,188 L-103,189 L-102,189 L-102,191 L-101,191 L-101,192 L-100,192 L-100,194 L-99,194 L-99,195 L-98,195 L-98,196 L-97,196 L-97,198 L-96,198 L-96,199 L-95,199 L-95,200 L-94,200 L-94,201 L-93,201 L-93,202 L-92,202 L-92,203 L-91,203 L-91,204 L-90,204 L-90,205 L-89,205 L-89,206 L-88,206 L-88,207 L-87,207 L-87,208 L-86,208 L-86,209 L-85,209 L-85,210 L-84,210 L-84,211 L-83,211 L-83,212 L-82,212 L-82,213 L-81,213 L-81,214 L-80,214 L-80,215 L-78,215 L-78,216 L-77,216 L-77,217 L-76,217 L-76,218 L-74,218 L-74,219 L-73,219 L-73,220 L-72,220 L-72,221 L-70,221 L-70,222 L-69,222 L-69,223 L-67,223 L-67,224 L-66,224 L-66,225 L-64,225 L-64,226 L-62,226 L-62,227 L-61,227 L-61,228 L-59,228 L-59,229 L-57,229 L-57,230 L-55,230 L-55,231 L-54,231 L-54,232 L-52,232 L-52,233 L-50,233 L-50,234 L-48,234 L-48,235 L-45,235 L-45,236 L-43,236 L-43,237 L-40,237 L-40,238 L-38,238 L-38,239 L-35,239 L-35,240 L-32,240 L-32,241 L-28,241 L-28,242 L-26,242 L-26,243 L-20,243 L-20,244 L-16,244 L-16,245 L-11,245 L-11,246 L-5,246 L-5,247 L8,247 L8,248 L33,248 L33,247 L44,247 L44,246 L47,246 L47,245 L55,245 L55,244 L56,244 L56,243 L62,243 L62,242 L64,242 L64,241 L67,241 L67,240 L72,240 L72,239 L73,239 L73,238 L76,238 L76,237 L79,237 L79,236 L81,236 L81,235 L83,235 L83,234 L86,234 L86,233 L88,233 L88,232 L90,232 L90,231 L92,231 L92,230 L94,230 L94,229 L95,229 L95,228 L97,228 L97,227 L99,227 L99,226 L100,226 L100,225 L102,225 L102,224 L103,224 L103,223 L105,223 L105,222 L106,222 L106,221 L108,221 L108,220 L109,220 L109,219 L110,219 L110,218 L112,218 L112,217 L113,217 L113,216 L114,216 L114,215 L115,215 L115,214 L116,214 L116,213 L117,213 L117,212 L119,212 L119,211 L120,211 L120,210 L121,210 L121,209 L122,209 L122,208 L123,208 L123,207 L124,207 L124,206 L125,206 L125,205 L126,205 L126,203 L127,203 L127,202 L128,202 L128,201 L129,201 L129,200 L130,200 L130,198 L131,198 L131,197 L132,197 L132,196 L133,196 L133,194 L134,194 L134,193 L135,193 L135,191 L136,191 L136,190 L137,190 L137,188 L138,188 L138,186 L139,186 L139,185 L140,185 L140,183 L141,183 L141,181 L142,181 L142,178 L143,178 L143,176 L144,176 L144,173 L145,173 L145,171 L146,171 L146,166 L147,166 L147,164 L148,164 L148,161 L149,161 L149,151 L150,151 L150,124 L149,124 L149,120 L148,120 L148,116 L147,116 L147,112 L146,112 L146,110 L145,110 L145,106 L144,106 L144,103 L143,103 L143,100 L142,100 L142,98 L141,98 L141,95 L140,95 L140,93 L139,93 L139,91 L138,91 L138,89 L137,89 L137,87 L136,87 L136,86 L135,86 L135,84 L134,84 L134,83 L133,83 L133,81 L132,81 L132,80 L131,80 L131,79 L130,79 L130,77 L129,77 L129,76 L128,76 L128,75 L127,75 L127,73 L126,73 L126,72 L125,72 L125,71 L124,71 L124,70 L123,70 L123,69 L122,69 L122,68 L121,68 L121,67 L120,67 L120,66 L119,66 L119,65 L118,65 L118,64 L117,64 L117,63 L116,63 L116,62 L115,62 L115,61 L114,61 L114,60 L113,60 L113,59 L111,59 L111,58 L110,58 L110,57 L109,57 L109,56 L108,56 L108,55 L106,55 L106,54 L105,54 L105,53 L103,53 L103,52 L102,52 L102,51 L100,51 L100,50 L99,50 L99,49 L97,49 L97,48 L95,48 L95,47 L93,47 L93,46 L91,46 L91,45 L90,45 L90,44 L88,44 L88,43 L86,43 L86,42 L84,42 L84,41 L82,41 L82,40 L79,40 L79,39 L77,39 L77,38 L75,38 L75,37 L73,37 L73,36 L69,36 L69,35 L66,35 L66,34 L63,34 L63,33 L59,33 L59,32 L55,32 L55,31 L51,31 L51,30 L47,30 L47,29 L41,29 L41,28 L35,28 L35,27 L28,27 L28,26 Z " transform="translate(196,79)" style="fill: #FDD551;"/>
  <path d="M0,0 L2,0 L2,1 L1,1 L1,3 L0,3 L0,4 L-1,4 L-1,5 L-2,5 L-2,6 L-3,6 L-3,7 L-4,7 L-4,9 L-5,9 L-5,10 L-6,10 L-6,12 L-7,12 L-7,13 L-8,13 L-8,15 L-9,15 L-9,17 L-10,17 L-10,19 L-11,19 L-11,21 L-12,21 L-12,23 L-13,23 L-13,25 L-14,25 L-14,27 L-15,27 L-15,29 L-16,29 L-16,31 L-17,31 L-17,33 L-18,33 L-18,36 L-19,36 L-19,40 L-20,40 L-20,42 L-21,42 L-21,46 L-22,46 L-22,49 L-23,49 L-23,52 L-24,52 L-24,57 L-25,57 L-25,62 L-26,62 L-26,68 L-27,68 L-27,75 L-28,75 L-28,90 L-27,90 L-27,97 L-26,97 L-26,104 L-25,104 L-25,109 L-24,109 L-24,111 L-23,111 L-23,114 L-22,114 L-22,117 L-21,117 L-21,120 L-20,120 L-20,123 L-19,123 L-19,125 L-18,125 L-18,127 L-17,127 L-17,129 L-16,129 L-16,131 L-15,131 L-15,133 L-14,133 L-14,135 L-13,135 L-13,136 L-12,136 L-12,138 L-11,138 L-11,139 L-10,139 L-10,141 L-9,141 L-9,142 L-8,142 L-8,144 L-7,144 L-7,145 L-6,145 L-6,147 L-5,147 L-5,148 L-4,148 L-4,150 L-3,150 L-3,151 L-2,151 L-2,153 L-1,153 L-1,154 L0,154 L0,155 L1,155 L1,157 L2,157 L2,158 L3,158 L3,159 L4,159 L4,160 L5,160 L5,161 L6,161 L6,163 L7,163 L7,164 L8,164 L8,165 L9,165 L9,166 L10,166 L10,167 L11,167 L11,168 L12,168 L12,169 L13,169 L13,170 L14,170 L14,171 L15,171 L15,172 L16,172 L16,173 L17,173 L17,174 L19,174 L19,175 L20,175 L20,176 L21,176 L21,177 L23,177 L23,178 L24,178 L24,179 L25,179 L25,180 L26,180 L26,181 L28,181 L28,183 L29,183 L29,184 L31,184 L31,185 L32,185 L32,186 L34,186 L34,187 L36,187 L36,188 L37,188 L37,189 L38,189 L38,190 L40,190 L40,191 L41,191 L41,192 L43,192 L43,193 L45,193 L45,194 L46,194 L46,195 L48,195 L48,196 L50,196 L50,197 L51,197 L51,198 L53,198 L53,199 L56,199 L56,200 L58,200 L58,201 L59,201 L59,202 L61,202 L61,203 L63,203 L63,204 L66,204 L66,205 L68,205 L68,206 L70,206 L70,207 L72,207 L72,208 L76,208 L76,209 L79,209 L79,210 L82,210 L82,211 L85,211 L85,212 L87,212 L87,213 L90,213 L90,214 L94,214 L94,215 L99,215 L99,216 L103,216 L103,217 L107,217 L107,218 L113,218 L113,219 L120,219 L120,220 L131,220 L131,221 L153,221 L153,220 L165,220 L165,219 L175,219 L175,218 L179,218 L179,217 L183,217 L183,216 L189,216 L189,215 L194,215 L194,214 L198,214 L198,213 L200,213 L200,212 L203,212 L203,211 L206,211 L206,210 L209,210 L209,209 L212,209 L212,208 L215,208 L215,207 L217,207 L217,206 L220,206 L220,205 L222,205 L222,204 L224,204 L224,203 L226,203 L226,202 L228,202 L228,201 L230,201 L230,200 L232,200 L232,199 L234,199 L234,198 L235,198 L235,197 L237,197 L237,196 L239,196 L239,195 L240,195 L240,194 L242,194 L242,193 L244,193 L244,192 L246,192 L246,191 L247,191 L247,190 L248,190 L248,189 L250,189 L250,188 L251,188 L251,187 L253,187 L253,186 L254,186 L254,185 L255,185 L255,184 L256,184 L256,183 L258,183 L258,182 L259,182 L259,181 L260,181 L260,180 L261,180 L261,179 L262,179 L262,178 L263,178 L263,177 L265,177 L265,176 L266,176 L266,175 L267,175 L267,174 L268,174 L268,173 L269,173 L269,172 L270,172 L270,171 L271,171 L271,170 L272,170 L272,169 L273,169 L273,168 L274,168 L274,166 L275,166 L275,165 L276,165 L276,164 L277,164 L277,163 L278,163 L278,162 L279,162 L279,161 L280,161 L280,159 L281,159 L281,158 L282,158 L282,156 L283,156 L283,155 L284,155 L284,154 L285,154 L285,152 L286,152 L286,151 L287,151 L287,149 L288,149 L288,147 L289,147 L289,145 L290,145 L290,144 L291,144 L291,142 L292,142 L292,139 L293,139 L293,137 L294,137 L294,135 L295,135 L295,137 L297,137 L297,139 L296,139 L296,142 L295,142 L295,145 L294,145 L294,148 L293,148 L293,151 L292,151 L292,156 L291,156 L291,157 L290,157 L290,161 L289,161 L289,162 L288,162 L288,165 L287,165 L287,167 L286,167 L286,169 L285,169 L285,171 L284,171 L284,173 L283,173 L283,174 L282,174 L282,176 L281,176 L281,178 L280,178 L280,180 L279,180 L279,182 L278,182 L278,183 L277,183 L277,185 L276,185 L276,186 L275,186 L275,187 L274,187 L274,189 L273,189 L273,190 L272,190 L272,192 L271,192 L271,193 L270,193 L270,194 L269,194 L269,195 L268,195 L268,196 L267,196 L267,197 L266,197 L266,199 L265,199 L265,200 L264,200 L264,201 L263,201 L263,202 L262,202 L262,203 L261,203 L261,204 L260,204 L260,205 L259,205 L259,206 L258,206 L258,207 L257,207 L257,208 L255,208 L255,209 L254,209 L254,210 L253,210 L253,211 L252,211 L252,212 L251,212 L251,213 L250,213 L250,214 L248,214 L248,215 L247,215 L247,216 L246,216 L246,217 L245,217 L245,218 L243,218 L243,219 L242,219 L242,220 L240,220 L240,221 L239,221 L239,222 L237,222 L237,223 L236,223 L236,224 L234,224 L234,225 L232,225 L232,226 L231,226 L231,227 L229,227 L229,228 L227,228 L227,229 L226,229 L226,230 L224,230 L224,231 L222,231 L222,232 L220,232 L220,233 L218,233 L218,234 L216,234 L216,235 L214,235 L214,236 L212,236 L212,237 L210,237 L210,238 L208,238 L208,239 L204,239 L204,240 L203,240 L203,241 L198,241 L198,242 L197,242 L197,243 L192,243 L192,244 L189,244 L189,245 L187,245 L187,246 L183,246 L183,247 L178,247 L178,248 L173,248 L173,249 L168,249 L168,250 L163,250 L163,251 L151,251 L151,252 L115,252 L115,251 L107,251 L107,250 L102,250 L102,249 L96,249 L96,248 L92,248 L92,247 L88,247 L88,246 L84,246 L84,245 L80,245 L80,244 L77,244 L77,243 L72,243 L72,242 L70,242 L70,241 L66,241 L66,240 L63,240 L63,239 L62,239 L62,238 L58,238 L58,237 L57,237 L57,236 L53,236 L53,235 L51,235 L51,234 L49,234 L49,233 L47,233 L47,232 L45,232 L45,231 L43,231 L43,230 L41,230 L41,229 L39,229 L39,228 L37,228 L37,227 L35,227 L35,226 L33,226 L33,225 L32,225 L32,224 L30,224 L30,223 L28,223 L28,222 L27,222 L27,221 L25,221 L25,220 L24,220 L24,219 L22,219 L22,218 L21,218 L21,217 L19,217 L19,216 L18,216 L18,215 L17,215 L17,214 L15,214 L15,213 L14,213 L14,212 L12,212 L12,211 L11,211 L11,210 L10,210 L10,209 L8,209 L8,208 L7,208 L7,207 L6,207 L6,206 L5,206 L5,205 L4,205 L4,204 L3,204 L3,203 L2,203 L2,202 L0,202 L0,201 L-1,201 L-1,200 L-2,200 L-2,199 L-3,199 L-3,198 L-4,198 L-4,197 L-5,197 L-5,196 L-6,196 L-6,195 L-7,195 L-7,194 L-8,194 L-8,192 L-9,192 L-9,191 L-10,191 L-10,190 L-11,190 L-11,189 L-10,189 L-10,188 L-9,188 L-9,186 L-8,186 L-8,185 L-7,185 L-7,184 L-6,184 L-6,183 L-5,183 L-5,181 L-4,181 L-4,179 L-3,179 L-3,177 L-2,177 L-2,176 L-1,176 L-1,172 L0,172 L0,161 L-1,161 L-1,157 L-2,157 L-2,156 L-3,156 L-3,161 L-4,161 L-4,164 L-5,164 L-5,167 L-6,167 L-6,168 L-7,168 L-7,170 L-8,170 L-8,172 L-9,172 L-9,173 L-10,173 L-10,175 L-11,175 L-11,176 L-12,176 L-12,178 L-13,178 L-13,179 L-14,179 L-14,180 L-15,180 L-15,181 L-16,181 L-16,183 L-17,183 L-17,184 L-18,184 L-18,185 L-19,185 L-19,186 L-20,186 L-20,187 L-21,187 L-21,188 L-23,188 L-23,189 L-24,189 L-24,190 L-25,190 L-25,191 L-26,191 L-26,192 L-28,192 L-28,193 L-29,193 L-29,194 L-31,194 L-31,195 L-33,195 L-33,196 L-35,196 L-35,197 L-39,197 L-39,198 L-51,198 L-51,197 L-53,197 L-53,196 L-55,196 L-55,195 L-56,195 L-56,194 L-58,194 L-58,193 L-59,193 L-59,192 L-60,192 L-60,190 L-61,190 L-61,188 L-62,188 L-62,186 L-63,186 L-63,185 L-64,185 L-64,173 L-63,173 L-63,168 L-62,168 L-62,165 L-61,165 L-61,163 L-60,163 L-60,161 L-59,161 L-59,159 L-58,159 L-58,158 L-57,158 L-57,156 L-56,156 L-56,155 L-55,155 L-55,154 L-54,154 L-54,152 L-53,152 L-53,151 L-52,151 L-52,150 L-51,150 L-51,149 L-50,149 L-50,148 L-49,148 L-49,147 L-48,147 L-48,146 L-47,146 L-47,145 L-46,145 L-46,144 L-44,144 L-44,143 L-43,143 L-43,142 L-42,142 L-42,141 L-40,141 L-40,140 L-39,140 L-39,139 L-37,139 L-37,138 L-35,138 L-35,137 L-33,137 L-33,136 L-30,136 L-30,135 L-28,135 L-28,134 L-24,134 L-24,133 L-20,133 L-20,131 L-30,131 L-30,132 L-32,132 L-32,133 L-34,133 L-34,134 L-37,134 L-37,135 L-39,135 L-39,136 L-41,136 L-41,137 L-43,137 L-43,135 L-44,135 L-44,130 L-45,130 L-45,127 L-46,127 L-46,123 L-47,123 L-47,118 L-48,118 L-48,82 L-47,82 L-47,77 L-46,77 L-46,72 L-45,72 L-45,70 L-44,70 L-44,65 L-43,65 L-43,61 L-42,61 L-42,58 L-41,58 L-41,55 L-40,55 L-40,53 L-39,53 L-39,51 L-38,51 L-38,49 L-37,49 L-37,47 L-36,47 L-36,45 L-35,45 L-35,42 L-34,42 L-34,40 L-33,40 L-33,38 L-32,38 L-32,37 L-31,37 L-31,35 L-30,35 L-30,34 L-29,34 L-29,32 L-28,32 L-28,31 L-27,31 L-27,29 L-26,29 L-26,28 L-25,28 L-25,26 L-24,26 L-24,25 L-23,25 L-23,24 L-22,24 L-22,23 L-21,23 L-21,21 L-20,21 L-20,20 L-19,20 L-19,19 L-18,19 L-18,18 L-17,18 L-17,17 L-16,17 L-16,15 L-15,15 L-15,14 L-14,14 L-14,13 L-13,13 L-13,12 L-12,12 L-12,11 L-11,11 L-11,10 L-10,10 L-10,9 L-9,9 L-9,8 L-8,8 L-8,7 L-7,7 L-7,6 L-6,6 L-6,5 L-5,5 L-5,4 L-4,4 L-4,3 L-2,3 L-2,2 L-1,2 L-1,1 L0,1 Z " transform="translate(73,132)" style="fill: #D27C05;"/>
  <path d="M0,0 L7,0 L7,1 L10,1 L10,2 L11,2 L11,3 L12,3 L12,4 L13,4 L13,5 L14,5 L14,8 L15,8 L15,10 L16,10 L16,16 L15,16 L15,18 L14,18 L14,20 L13,20 L13,21 L12,21 L12,22 L11,22 L11,23 L9,23 L9,24 L7,24 L7,26 L8,26 L8,36 L7,36 L7,39 L6,39 L6,41 L5,41 L5,43 L4,43 L4,44 L3,44 L3,46 L2,46 L2,47 L0,47 L0,48 L7,48 L7,49 L10,49 L10,50 L13,50 L13,51 L14,51 L14,52 L16,52 L16,53 L17,53 L17,55 L18,55 L18,56 L19,56 L19,58 L20,58 L20,60 L21,60 L21,74 L40,74 L40,75 L48,75 L48,76 L55,76 L55,77 L59,77 L59,78 L63,78 L63,79 L67,79 L67,80 L71,80 L71,81 L74,81 L74,82 L77,82 L77,83 L80,83 L80,84 L83,84 L83,85 L85,85 L85,86 L88,86 L88,87 L90,87 L90,88 L93,88 L93,89 L95,89 L95,90 L97,90 L97,91 L100,91 L100,92 L102,92 L102,93 L104,93 L104,94 L106,94 L106,95 L107,95 L107,96 L109,96 L109,97 L111,97 L111,98 L113,98 L113,99 L115,99 L115,100 L117,100 L117,101 L118,101 L118,102 L120,102 L120,103 L121,103 L121,104 L123,104 L123,105 L124,105 L124,106 L126,106 L126,107 L127,107 L127,108 L129,108 L129,109 L130,109 L130,110 L131,110 L131,111 L133,111 L133,112 L134,112 L134,113 L135,113 L135,114 L136,114 L136,115 L138,115 L138,116 L139,116 L139,117 L140,117 L140,118 L141,118 L141,119 L142,119 L142,120 L144,120 L144,121 L145,121 L145,122 L146,122 L146,123 L147,123 L147,124 L148,124 L148,125 L149,125 L149,126 L150,126 L150,127 L151,127 L151,128 L152,128 L152,129 L153,129 L153,130 L154,130 L154,131 L155,131 L155,132 L156,132 L156,134 L157,134 L157,135 L158,135 L158,136 L159,136 L159,137 L160,137 L160,138 L161,138 L161,140 L162,140 L162,141 L163,141 L163,142 L164,142 L164,143 L165,143 L165,145 L166,145 L166,146 L167,146 L167,148 L168,148 L168,149 L169,149 L169,150 L170,150 L170,152 L171,152 L171,154 L172,154 L172,156 L173,156 L173,158 L174,158 L174,159 L175,159 L175,161 L176,161 L176,163 L177,163 L177,165 L178,165 L178,164 L179,164 L179,163 L182,163 L182,162 L184,162 L184,161 L187,161 L187,160 L204,160 L204,161 L207,161 L207,162 L209,162 L209,163 L211,163 L211,164 L213,164 L213,165 L214,165 L214,166 L215,166 L215,167 L216,167 L216,168 L218,168 L218,170 L219,170 L219,171 L220,171 L220,173 L221,173 L221,175 L222,175 L222,178 L223,178 L223,182 L224,182 L224,192 L223,192 L223,198 L222,198 L222,202 L221,202 L221,205 L220,205 L220,207 L219,207 L219,209 L218,209 L218,211 L217,211 L217,213 L216,213 L216,214 L215,214 L215,215 L214,215 L214,217 L213,217 L213,218 L212,218 L212,219 L211,219 L211,221 L210,221 L210,222 L209,222 L209,224 L208,224 L208,225 L207,225 L207,227 L206,227 L206,228 L205,228 L205,229 L204,229 L204,230 L202,230 L202,232 L198,232 L198,233 L197,233 L197,234 L195,234 L195,235 L194,235 L194,236 L193,236 L193,237 L192,237 L192,241 L191,241 L191,246 L192,246 L192,248 L190,248 L190,254 L189,254 L189,262 L188,262 L188,267 L187,267 L187,272 L186,272 L186,276 L185,276 L185,278 L184,278 L184,282 L183,282 L183,285 L182,285 L182,287 L181,287 L181,288 L180,288 L180,291 L179,291 L179,293 L178,293 L178,297 L177,297 L177,301 L176,301 L176,304 L175,304 L175,306 L174,306 L174,307 L173,307 L173,309 L172,309 L172,310 L171,310 L171,312 L170,312 L170,313 L169,313 L169,315 L168,315 L168,317 L167,317 L167,318 L166,318 L166,320 L165,320 L165,321 L164,321 L164,323 L163,323 L163,325 L162,325 L162,327 L161,327 L161,328 L159,328 L159,329 L158,329 L158,331 L157,331 L157,332 L156,332 L156,333 L155,333 L155,334 L154,334 L154,335 L153,335 L153,336 L152,336 L152,338 L151,338 L151,339 L150,339 L150,340 L149,340 L149,341 L148,341 L148,342 L147,342 L147,343 L146,343 L146,344 L145,344 L145,345 L144,345 L144,346 L142,346 L142,347 L141,347 L141,348 L140,348 L140,349 L139,349 L139,350 L138,350 L138,351 L137,351 L137,352 L136,352 L136,353 L135,353 L135,354 L133,354 L133,356 L131,356 L131,357 L130,357 L130,358 L128,358 L128,359 L127,359 L127,360 L126,360 L126,361 L124,361 L124,362 L122,362 L122,363 L121,363 L121,364 L120,364 L120,365 L118,365 L118,366 L116,366 L116,367 L115,367 L115,368 L114,368 L114,369 L112,369 L112,370 L110,370 L110,371 L108,371 L108,372 L106,372 L106,373 L104,373 L104,374 L101,374 L101,375 L99,375 L99,376 L96,376 L96,377 L94,377 L94,378 L92,378 L92,379 L89,379 L89,380 L87,380 L87,381 L85,381 L85,382 L82,382 L82,383 L80,383 L80,384 L76,384 L76,385 L73,385 L73,386 L70,386 L70,387 L66,387 L66,388 L61,388 L61,389 L56,389 L56,390 L50,390 L50,391 L42,391 L42,392 L28,392 L28,393 L-1,393 L-1,392 L-11,392 L-11,391 L-17,391 L-17,390 L-24,390 L-24,389 L-30,389 L-30,388 L-34,388 L-34,387 L-38,387 L-38,386 L-43,386 L-43,385 L-47,385 L-47,384 L-50,384 L-50,383 L-53,383 L-53,382 L-55,382 L-55,381 L-58,381 L-58,380 L-60,380 L-60,379 L-62,379 L-62,378 L-64,378 L-64,377 L-66,377 L-66,376 L-68,376 L-68,375 L-71,375 L-71,374 L-74,374 L-74,373 L-75,373 L-75,372 L-77,372 L-77,371 L-79,371 L-79,370 L-81,370 L-81,369 L-83,369 L-83,368 L-85,368 L-85,367 L-87,367 L-87,366 L-90,366 L-90,365 L-91,365 L-91,364 L-93,364 L-93,363 L-95,363 L-95,362 L-97,362 L-97,361 L-98,361 L-98,360 L-100,360 L-100,359 L-102,359 L-102,358 L-103,358 L-103,357 L-105,357 L-105,356 L-106,356 L-106,355 L-108,355 L-108,354 L-109,354 L-109,353 L-111,353 L-111,352 L-112,352 L-112,351 L-114,351 L-114,350 L-115,350 L-115,349 L-117,349 L-117,348 L-119,348 L-119,347 L-120,347 L-120,345 L-121,345 L-121,344 L-122,344 L-122,343 L-123,343 L-123,342 L-124,342 L-124,341 L-126,341 L-126,340 L-127,340 L-127,339 L-128,339 L-128,338 L-129,338 L-129,337 L-130,337 L-130,336 L-131,336 L-131,335 L-133,335 L-133,334 L-134,334 L-134,333 L-135,333 L-135,332 L-136,332 L-136,331 L-137,331 L-137,330 L-141,330 L-141,331 L-143,331 L-143,333 L-145,333 L-145,334 L-147,334 L-147,335 L-149,335 L-149,336 L-151,336 L-151,337 L-155,337 L-155,338 L-172,338 L-172,337 L-174,337 L-174,336 L-178,336 L-178,335 L-180,335 L-180,334 L-181,334 L-181,333 L-183,333 L-183,332 L-184,332 L-184,331 L-185,331 L-185,329 L-186,329 L-186,328 L-187,328 L-187,327 L-188,327 L-188,326 L-189,326 L-189,324 L-190,324 L-190,322 L-191,322 L-191,319 L-192,319 L-192,314 L-193,314 L-193,310 L-192,310 L-192,301 L-191,301 L-191,297 L-190,297 L-190,295 L-189,295 L-189,292 L-188,292 L-188,290 L-187,290 L-187,289 L-186,289 L-186,287 L-185,287 L-185,285 L-184,285 L-184,284 L-183,284 L-183,283 L-182,283 L-182,281 L-181,281 L-181,280 L-180,280 L-180,279 L-179,279 L-179,278 L-178,278 L-178,277 L-177,277 L-177,276 L-176,276 L-176,274 L-175,274 L-175,273 L-173,273 L-173,272 L-172,272 L-172,268 L-173,268 L-173,265 L-174,265 L-174,261 L-175,261 L-175,257 L-176,257 L-176,250 L-177,250 L-177,218 L-176,218 L-176,211 L-175,211 L-175,206 L-174,206 L-174,201 L-173,201 L-173,197 L-172,197 L-172,194 L-171,194 L-171,191 L-170,191 L-170,188 L-169,188 L-169,186 L-168,186 L-168,183 L-167,183 L-167,181 L-166,181 L-166,178 L-165,178 L-165,176 L-164,176 L-164,174 L-163,174 L-163,172 L-162,172 L-162,170 L-161,170 L-161,168 L-160,168 L-160,167 L-159,167 L-159,165 L-158,165 L-158,163 L-157,163 L-157,162 L-156,162 L-156,160 L-155,160 L-155,158 L-154,158 L-154,157 L-153,157 L-153,156 L-152,156 L-152,154 L-151,154 L-151,153 L-150,153 L-150,151 L-149,151 L-149,150 L-148,150 L-148,149 L-147,149 L-147,148 L-146,148 L-146,146 L-145,146 L-145,145 L-144,145 L-144,144 L-143,144 L-143,143 L-142,143 L-142,142 L-141,142 L-141,141 L-140,141 L-140,140 L-139,140 L-139,139 L-138,139 L-138,138 L-137,138 L-137,137 L-136,137 L-136,136 L-135,136 L-135,135 L-134,135 L-134,134 L-133,134 L-133,133 L-132,133 L-132,132 L-131,132 L-131,131 L-130,131 L-130,130 L-128,130 L-128,129 L-127,129 L-127,128 L-126,128 L-126,127 L-125,127 L-125,126 L-124,126 L-124,125 L-122,125 L-122,124 L-121,124 L-121,123 L-120,123 L-120,122 L-118,122 L-118,121 L-117,121 L-117,120 L-116,120 L-116,119 L-114,119 L-114,118 L-113,118 L-113,117 L-111,117 L-111,116 L-110,116 L-110,115 L-109,115 L-109,114 L-108,114 L-108,113 L-107,113 L-107,112 L-105,112 L-105,111 L-104,111 L-104,110 L-103,110 L-103,109 L-101,109 L-101,108 L-100,108 L-100,107 L-98,107 L-98,106 L-97,106 L-97,105 L-96,105 L-96,104 L-94,104 L-94,103 L-93,103 L-93,102 L-91,102 L-91,101 L-90,101 L-90,100 L-88,100 L-88,99 L-86,99 L-86,98 L-85,98 L-85,97 L-83,97 L-83,96 L-81,96 L-81,95 L-79,95 L-79,94 L-77,94 L-77,93 L-75,93 L-75,92 L-73,92 L-73,91 L-71,91 L-71,90 L-68,90 L-68,89 L-66,89 L-66,88 L-63,88 L-63,87 L-60,87 L-60,86 L-57,86 L-57,85 L-55,85 L-55,84 L-52,84 L-52,83 L-48,83 L-48,82 L-45,82 L-45,81 L-41,81 L-41,80 L-37,80 L-37,79 L-33,79 L-33,77 L-34,77 L-34,69 L-33,69 L-33,67 L-32,67 L-32,64 L-31,64 L-31,62 L-32,62 L-32,60 L-33,60 L-33,58 L-34,58 L-34,55 L-35,55 L-35,52 L-34,52 L-34,48 L-33,48 L-33,47 L-34,47 L-34,46 L-35,46 L-35,44 L-36,44 L-36,42 L-37,42 L-37,40 L-38,40 L-38,37 L-39,37 L-39,23 L-38,23 L-38,21 L-37,21 L-37,19 L-36,19 L-36,17 L-35,17 L-35,16 L-34,16 L-34,14 L-33,14 L-33,13 L-32,13 L-32,12 L-31,12 L-31,11 L-29,11 L-29,10 L-28,10 L-28,9 L-26,9 L-26,8 L-23,8 L-23,7 L-19,7 L-19,6 L-12,6 L-12,7 L-8,7 L-8,5 L-7,5 L-7,4 L-5,4 L-5,3 L-4,3 L-4,2 L-3,2 L-3,1 L0,1 Z M3,79 L3,80 L-6,80 L-6,81 L-14,81 L-14,82 L-22,82 L-22,83 L-25,83 L-25,84 L-31,84 L-31,85 L-35,85 L-35,86 L-38,86 L-38,87 L-41,87 L-41,88 L-45,88 L-45,89 L-48,89 L-48,90 L-50,90 L-50,91 L-53,91 L-53,92 L-55,92 L-55,93 L-57,93 L-57,94 L-60,94 L-60,95 L-62,95 L-62,96 L-65,96 L-65,97 L-69,97 L-69,98 L-71,98 L-71,99 L-73,99 L-73,100 L-75,100 L-75,101 L-76,101 L-76,102 L-78,102 L-78,103 L-80,103 L-80,104 L-81,104 L-81,105 L-83,105 L-83,106 L-85,106 L-85,107 L-87,107 L-87,108 L-88,108 L-88,109 L-90,109 L-90,110 L-92,110 L-92,111 L-93,111 L-93,112 L-95,112 L-95,113 L-96,113 L-96,114 L-98,114 L-98,115 L-99,115 L-99,116 L-101,116 L-101,117 L-102,117 L-102,118 L-103,118 L-103,119 L-104,119 L-104,120 L-105,120 L-105,121 L-106,121 L-106,122 L-107,122 L-107,123 L-108,123 L-108,124 L-109,124 L-109,125 L-110,125 L-110,126 L-111,126 L-111,127 L-112,127 L-112,128 L-114,128 L-114,129 L-115,129 L-115,130 L-116,130 L-116,131 L-117,131 L-117,132 L-120,132 L-120,133 L-121,133 L-121,134 L-122,134 L-122,135 L-124,135 L-124,136 L-125,136 L-125,137 L-126,137 L-126,138 L-127,138 L-127,139 L-128,139 L-128,140 L-129,140 L-129,141 L-130,141 L-130,142 L-131,142 L-131,143 L-132,143 L-132,144 L-133,144 L-133,145 L-134,145 L-134,146 L-135,146 L-135,147 L-136,147 L-136,149 L-137,149 L-137,150 L-138,150 L-138,151 L-139,151 L-139,152 L-140,152 L-140,153 L-141,153 L-141,155 L-142,155 L-142,156 L-143,156 L-143,157 L-144,157 L-144,158 L-145,158 L-145,160 L-146,160 L-146,161 L-147,161 L-147,163 L-148,163 L-148,164 L-149,164 L-149,166 L-150,166 L-150,167 L-151,167 L-151,169 L-152,169 L-152,170 L-153,170 L-153,172 L-154,172 L-154,174 L-155,174 L-155,177 L-156,177 L-156,179 L-157,179 L-157,181 L-158,181 L-158,183 L-159,183 L-159,185 L-160,185 L-160,187 L-161,187 L-161,190 L-162,190 L-162,193 L-163,193 L-163,197 L-164,197 L-164,202 L-165,202 L-165,204 L-166,204 L-166,209 L-167,209 L-167,214 L-168,214 L-168,250 L-167,250 L-167,255 L-166,255 L-166,259 L-165,259 L-165,262 L-164,262 L-164,267 L-163,267 L-163,269 L-161,269 L-161,268 L-159,268 L-159,267 L-157,267 L-157,266 L-154,266 L-154,265 L-152,265 L-152,264 L-150,264 L-150,263 L-140,263 L-140,265 L-144,265 L-144,266 L-148,266 L-148,267 L-150,267 L-150,268 L-153,268 L-153,269 L-155,269 L-155,270 L-157,270 L-157,271 L-159,271 L-159,272 L-160,272 L-160,273 L-162,273 L-162,274 L-163,274 L-163,275 L-164,275 L-164,276 L-166,276 L-166,277 L-167,277 L-167,278 L-168,278 L-168,279 L-169,279 L-169,280 L-170,280 L-170,281 L-171,281 L-171,282 L-172,282 L-172,283 L-173,283 L-173,284 L-174,284 L-174,286 L-175,286 L-175,287 L-176,287 L-176,288 L-177,288 L-177,290 L-178,290 L-178,291 L-179,291 L-179,293 L-180,293 L-180,295 L-181,295 L-181,297 L-182,297 L-182,300 L-183,300 L-183,305 L-184,305 L-184,317 L-183,317 L-183,318 L-182,318 L-182,320 L-181,320 L-181,322 L-180,322 L-180,324 L-179,324 L-179,325 L-178,325 L-178,326 L-176,326 L-176,327 L-175,327 L-175,328 L-173,328 L-173,329 L-171,329 L-171,330 L-159,330 L-159,329 L-155,329 L-155,328 L-153,328 L-153,327 L-151,327 L-151,326 L-149,326 L-149,325 L-148,325 L-148,324 L-146,324 L-146,323 L-145,323 L-145,322 L-144,322 L-144,321 L-143,321 L-143,320 L-141,320 L-141,319 L-140,319 L-140,318 L-139,318 L-139,317 L-138,317 L-138,316 L-137,316 L-137,315 L-136,315 L-136,313 L-135,313 L-135,312 L-134,312 L-134,311 L-133,311 L-133,310 L-132,310 L-132,308 L-131,308 L-131,307 L-130,307 L-130,305 L-129,305 L-129,304 L-128,304 L-128,302 L-127,302 L-127,300 L-126,300 L-126,299 L-125,299 L-125,296 L-124,296 L-124,293 L-123,293 L-123,288 L-122,288 L-122,289 L-121,289 L-121,293 L-120,293 L-120,304 L-121,304 L-121,308 L-122,308 L-122,309 L-123,309 L-123,311 L-124,311 L-124,313 L-125,313 L-125,315 L-126,315 L-126,316 L-127,316 L-127,317 L-128,317 L-128,318 L-129,318 L-129,320 L-130,320 L-130,321 L-131,321 L-131,322 L-130,322 L-130,323 L-129,323 L-129,324 L-128,324 L-128,326 L-127,326 L-127,327 L-126,327 L-126,328 L-125,328 L-125,329 L-124,329 L-124,330 L-123,330 L-123,331 L-122,331 L-122,332 L-121,332 L-121,333 L-120,333 L-120,334 L-118,334 L-118,335 L-117,335 L-117,336 L-116,336 L-116,337 L-115,337 L-115,338 L-114,338 L-114,339 L-113,339 L-113,340 L-112,340 L-112,341 L-110,341 L-110,342 L-109,342 L-109,343 L-108,343 L-108,344 L-106,344 L-106,345 L-105,345 L-105,346 L-103,346 L-103,347 L-102,347 L-102,348 L-101,348 L-101,349 L-99,349 L-99,350 L-98,350 L-98,351 L-96,351 L-96,352 L-95,352 L-95,353 L-93,353 L-93,354 L-92,354 L-92,355 L-90,355 L-90,356 L-88,356 L-88,357 L-87,357 L-87,358 L-85,358 L-85,359 L-83,359 L-83,360 L-81,360 L-81,361 L-79,361 L-79,362 L-77,362 L-77,363 L-75,363 L-75,364 L-73,364 L-73,365 L-71,365 L-71,366 L-69,366 L-69,367 L-67,367 L-67,368 L-63,368 L-63,369 L-62,369 L-62,370 L-58,370 L-58,371 L-57,371 L-57,372 L-54,372 L-54,373 L-50,373 L-50,374 L-48,374 L-48,375 L-43,375 L-43,376 L-40,376 L-40,377 L-36,377 L-36,378 L-32,378 L-32,379 L-28,379 L-28,380 L-24,380 L-24,381 L-18,381 L-18,382 L-13,382 L-13,383 L-5,383 L-5,384 L31,384 L31,383 L43,383 L43,382 L48,382 L48,381 L53,381 L53,380 L58,380 L58,379 L63,379 L63,378 L67,378 L67,377 L69,377 L69,376 L72,376 L72,375 L77,375 L77,374 L78,374 L78,373 L83,373 L83,372 L84,372 L84,371 L88,371 L88,370 L90,370 L90,369 L92,369 L92,368 L94,368 L94,367 L96,367 L96,366 L98,366 L98,365 L100,365 L100,364 L102,364 L102,363 L104,363 L104,362 L106,362 L106,361 L107,361 L107,360 L109,360 L109,359 L111,359 L111,358 L112,358 L112,357 L114,357 L114,356 L116,356 L116,355 L117,355 L117,354 L119,354 L119,353 L120,353 L120,352 L122,352 L122,351 L123,351 L123,350 L125,350 L125,349 L126,349 L126,348 L127,348 L127,347 L128,347 L128,346 L130,346 L130,345 L131,345 L131,344 L132,344 L132,343 L133,343 L133,342 L134,342 L134,341 L135,341 L135,340 L137,340 L137,339 L138,339 L138,338 L139,338 L139,337 L140,337 L140,336 L141,336 L141,335 L142,335 L142,334 L143,334 L143,333 L144,333 L144,332 L145,332 L145,331 L146,331 L146,329 L147,329 L147,328 L148,328 L148,327 L149,327 L149,326 L150,326 L150,325 L151,325 L151,324 L152,324 L152,322 L153,322 L153,321 L154,321 L154,319 L155,319 L155,318 L156,318 L156,317 L157,317 L157,315 L158,315 L158,314 L159,314 L159,312 L160,312 L160,310 L161,310 L161,308 L162,308 L162,306 L163,306 L163,305 L164,305 L164,303 L165,303 L165,301 L166,301 L166,299 L167,299 L167,297 L168,297 L168,294 L169,294 L169,293 L170,293 L170,289 L171,289 L171,288 L172,288 L172,283 L173,283 L173,280 L174,280 L174,277 L175,277 L175,274 L176,274 L176,271 L177,271 L177,269 L175,269 L175,267 L176,267 L176,264 L177,264 L177,260 L178,260 L178,256 L179,256 L179,255 L180,255 L180,251 L181,251 L181,247 L182,247 L182,239 L183,239 L183,235 L172,235 L172,234 L176,234 L176,233 L178,233 L178,232 L181,232 L181,231 L184,231 L184,230 L186,230 L186,229 L188,229 L188,228 L189,228 L189,227 L191,227 L191,226 L192,226 L192,225 L194,225 L194,224 L195,224 L195,223 L196,223 L196,222 L198,222 L198,221 L199,221 L199,220 L200,220 L200,219 L201,219 L201,218 L202,218 L202,217 L203,217 L203,216 L204,216 L204,215 L205,215 L205,214 L206,214 L206,213 L207,213 L207,211 L208,211 L208,209 L209,209 L209,208 L210,208 L210,205 L211,205 L211,203 L212,203 L212,202 L213,202 L213,199 L214,199 L214,195 L215,195 L215,180 L214,180 L214,178 L213,178 L213,176 L212,176 L212,175 L211,175 L211,174 L210,174 L210,173 L209,173 L209,172 L207,172 L207,171 L206,171 L206,170 L204,170 L204,169 L202,169 L202,168 L191,168 L191,169 L188,169 L188,170 L185,170 L185,171 L184,171 L184,172 L182,172 L182,173 L180,173 L180,174 L179,174 L179,175 L178,175 L178,176 L176,176 L176,177 L175,177 L175,178 L174,178 L174,179 L173,179 L173,180 L172,180 L172,181 L171,181 L171,182 L170,182 L170,184 L169,184 L169,185 L168,185 L168,186 L167,186 L167,187 L166,187 L166,189 L165,189 L165,190 L164,190 L164,192 L163,192 L163,194 L162,194 L162,196 L161,196 L161,197 L160,197 L160,201 L159,201 L159,202 L158,202 L158,205 L157,205 L157,209 L155,209 L155,194 L156,194 L156,189 L157,189 L157,188 L158,188 L158,185 L159,185 L159,184 L160,184 L160,182 L161,182 L161,181 L162,181 L162,180 L163,180 L163,179 L164,179 L164,178 L165,178 L165,177 L166,177 L166,176 L167,176 L167,175 L168,175 L168,174 L169,174 L169,173 L171,173 L171,170 L170,170 L170,168 L169,168 L169,166 L168,166 L168,164 L167,164 L167,162 L166,162 L166,159 L165,159 L165,157 L164,157 L164,156 L163,156 L163,154 L162,154 L162,152 L161,152 L161,151 L160,151 L160,150 L159,150 L159,149 L158,149 L158,147 L157,147 L157,146 L156,146 L156,145 L155,145 L155,144 L154,144 L154,143 L153,143 L153,141 L152,141 L152,140 L151,140 L151,139 L150,139 L150,138 L149,138 L149,137 L148,137 L148,136 L147,136 L147,135 L146,135 L146,134 L145,134 L145,133 L144,133 L144,132 L143,132 L143,131 L142,131 L142,130 L141,130 L141,129 L140,129 L140,128 L139,128 L139,127 L138,127 L138,126 L137,126 L137,125 L136,125 L136,124 L134,124 L134,123 L133,123 L133,122 L132,122 L132,121 L131,121 L131,120 L130,120 L130,119 L128,119 L128,118 L127,118 L127,117 L126,117 L126,116 L125,116 L125,115 L123,115 L123,114 L122,114 L122,113 L120,113 L120,112 L119,112 L119,111 L117,111 L117,110 L116,110 L116,109 L114,109 L114,108 L113,108 L113,107 L111,107 L111,106 L110,106 L110,105 L108,105 L108,104 L106,104 L106,103 L104,103 L104,102 L103,102 L103,101 L101,101 L101,100 L99,100 L99,99 L97,99 L97,98 L95,98 L95,97 L92,97 L92,96 L90,96 L90,95 L88,95 L88,94 L85,94 L85,93 L82,93 L82,92 L79,92 L79,91 L77,91 L77,90 L73,90 L73,89 L70,89 L70,88 L67,88 L67,87 L63,87 L63,86 L60,86 L60,85 L57,85 L57,84 L51,84 L51,83 L47,83 L47,82 L40,82 L40,81 L32,81 L32,80 L7,80 L7,79 Z " transform="translate(193,0)" style="fill: #512310;"/>
  <path d="M0,0 L28,0 L28,1 L35,1 L35,2 L41,2 L41,3 L47,3 L47,4 L51,4 L51,5 L55,5 L55,6 L59,6 L59,7 L63,7 L63,8 L66,8 L66,9 L69,9 L69,10 L73,10 L73,11 L75,11 L75,12 L77,12 L77,13 L79,13 L79,14 L82,14 L82,15 L84,15 L84,16 L86,16 L86,17 L88,17 L88,18 L90,18 L90,19 L91,19 L91,20 L93,20 L93,21 L95,21 L95,22 L97,22 L97,23 L99,23 L99,24 L100,24 L100,25 L102,25 L102,26 L103,26 L103,27 L105,27 L105,28 L106,28 L106,29 L108,29 L108,30 L109,30 L109,31 L110,31 L110,32 L111,32 L111,33 L113,33 L113,34 L114,34 L114,35 L115,35 L115,36 L116,36 L116,37 L117,37 L117,38 L118,38 L118,39 L119,39 L119,40 L120,40 L120,41 L121,41 L121,42 L122,42 L122,43 L123,43 L123,44 L124,44 L124,45 L125,45 L125,46 L126,46 L126,47 L127,47 L127,49 L128,49 L128,50 L129,50 L129,51 L130,51 L130,53 L131,53 L131,54 L132,54 L132,55 L133,55 L133,57 L134,57 L134,58 L135,58 L135,60 L136,60 L136,61 L137,61 L137,63 L138,63 L138,65 L139,65 L139,67 L140,67 L140,69 L141,69 L141,72 L142,72 L142,74 L143,74 L143,77 L144,77 L144,80 L145,80 L145,84 L146,84 L146,86 L147,86 L147,90 L148,90 L148,94 L149,94 L149,108 L148,108 L148,106 L147,106 L147,102 L146,102 L146,100 L145,100 L145,98 L144,98 L144,94 L143,94 L143,92 L142,92 L142,90 L141,90 L141,88 L140,88 L140,86 L139,86 L139,84 L138,84 L138,82 L137,82 L137,79 L136,79 L136,78 L135,78 L135,76 L134,76 L134,74 L133,74 L133,73 L132,73 L132,71 L131,71 L131,70 L130,70 L130,68 L129,68 L129,67 L128,67 L128,65 L127,65 L127,64 L126,64 L126,63 L125,63 L125,62 L124,62 L124,60 L123,60 L123,59 L122,59 L122,58 L121,58 L121,57 L120,57 L120,56 L119,56 L119,55 L118,55 L118,54 L117,54 L117,53 L116,53 L116,52 L115,52 L115,51 L114,51 L114,50 L113,50 L113,49 L112,49 L112,48 L111,48 L111,47 L109,47 L109,46 L108,46 L108,45 L107,45 L107,44 L106,44 L106,43 L104,43 L104,42 L103,42 L103,41 L101,41 L101,40 L100,40 L100,39 L98,39 L98,38 L96,38 L96,37 L95,37 L95,36 L93,36 L93,35 L91,35 L91,34 L89,34 L89,33 L87,33 L87,32 L85,32 L85,31 L84,31 L84,30 L82,30 L82,29 L80,29 L80,28 L78,28 L78,27 L76,27 L76,26 L73,26 L73,25 L71,25 L71,24 L68,24 L68,23 L65,23 L65,22 L62,22 L62,21 L59,21 L59,20 L55,20 L55,19 L52,19 L52,18 L48,18 L48,17 L45,17 L45,16 L38,16 L38,15 L30,15 L30,14 L25,14 L25,13 L-1,13 L-1,14 L-9,14 L-9,15 L-12,15 L-12,16 L-19,16 L-19,17 L-23,17 L-23,18 L-27,18 L-27,19 L-30,19 L-30,20 L-33,20 L-33,21 L-36,21 L-36,22 L-40,22 L-40,23 L-43,23 L-43,24 L-44,24 L-44,25 L-48,25 L-48,26 L-49,26 L-49,27 L-52,27 L-52,28 L-54,28 L-54,29 L-56,29 L-56,30 L-58,30 L-58,31 L-60,31 L-60,32 L-62,32 L-62,33 L-63,33 L-63,34 L-64,34 L-64,35 L-66,35 L-66,36 L-67,36 L-67,37 L-69,37 L-69,38 L-70,38 L-70,39 L-72,39 L-72,40 L-73,40 L-73,41 L-74,41 L-74,42 L-75,42 L-75,43 L-77,43 L-77,44 L-78,44 L-78,45 L-79,45 L-79,46 L-80,46 L-80,47 L-81,47 L-81,48 L-82,48 L-82,49 L-83,49 L-83,50 L-84,50 L-84,51 L-85,51 L-85,52 L-86,52 L-86,53 L-87,53 L-87,54 L-88,54 L-88,55 L-89,55 L-89,57 L-90,57 L-90,58 L-91,58 L-91,59 L-92,59 L-92,60 L-93,60 L-93,62 L-94,62 L-94,63 L-95,63 L-95,64 L-96,64 L-96,67 L-97,67 L-97,68 L-98,68 L-98,70 L-99,70 L-99,74 L-100,74 L-100,76 L-101,76 L-101,78 L-102,78 L-102,80 L-103,80 L-103,84 L-104,84 L-104,85 L-105,85 L-105,88 L-106,88 L-106,92 L-107,92 L-107,116 L-106,116 L-106,123 L-105,123 L-105,128 L-104,128 L-104,132 L-103,132 L-103,135 L-102,135 L-102,138 L-101,138 L-101,140 L-100,140 L-100,142 L-99,142 L-99,145 L-98,145 L-98,147 L-97,147 L-97,150 L-96,150 L-96,151 L-95,151 L-95,153 L-94,153 L-94,154 L-93,154 L-93,156 L-92,156 L-92,158 L-91,158 L-91,159 L-90,159 L-90,161 L-89,161 L-89,162 L-88,162 L-88,163 L-87,163 L-87,165 L-86,165 L-86,166 L-85,166 L-85,168 L-84,168 L-84,169 L-83,169 L-83,170 L-82,170 L-82,171 L-81,171 L-81,172 L-80,172 L-80,173 L-79,173 L-79,174 L-78,174 L-78,175 L-77,175 L-77,176 L-76,176 L-76,177 L-75,177 L-75,178 L-74,178 L-74,179 L-73,179 L-73,180 L-72,180 L-72,181 L-71,181 L-71,182 L-69,182 L-69,183 L-68,183 L-68,184 L-67,184 L-67,185 L-66,185 L-66,186 L-64,186 L-64,187 L-63,187 L-63,188 L-62,188 L-62,189 L-60,189 L-60,190 L-59,190 L-59,191 L-57,191 L-57,192 L-56,192 L-56,193 L-54,193 L-54,194 L-53,194 L-53,195 L-51,195 L-51,196 L-49,196 L-49,197 L-47,197 L-47,198 L-45,198 L-45,199 L-43,199 L-43,200 L-40,200 L-40,201 L-38,201 L-38,202 L-36,202 L-36,203 L-34,203 L-34,204 L-31,204 L-31,205 L-28,205 L-28,206 L-25,206 L-25,207 L-21,207 L-21,208 L-20,208 L-20,209 L-14,209 L-14,210 L-12,210 L-12,211 L-6,211 L-6,212 L-1,212 L-1,213 L8,213 L8,214 L34,214 L34,213 L38,213 L38,212 L46,212 L46,211 L52,211 L52,210 L59,210 L59,209 L62,209 L62,208 L66,208 L66,207 L68,207 L68,206 L72,206 L72,205 L74,205 L74,204 L77,204 L77,203 L80,203 L80,202 L82,202 L82,201 L84,201 L84,200 L86,200 L86,199 L88,199 L88,198 L91,198 L91,197 L92,197 L92,196 L94,196 L94,195 L96,195 L96,194 L98,194 L98,193 L100,193 L100,192 L101,192 L101,191 L103,191 L103,190 L104,190 L104,189 L106,189 L106,188 L107,188 L107,187 L109,187 L109,186 L110,186 L110,185 L111,185 L111,184 L112,184 L112,183 L114,183 L114,182 L115,182 L115,181 L116,181 L116,180 L117,180 L117,179 L118,179 L118,178 L119,178 L119,177 L120,177 L120,176 L121,176 L121,175 L122,175 L122,174 L123,174 L123,173 L124,173 L124,172 L125,172 L125,171 L126,171 L126,169 L127,169 L127,168 L128,168 L128,167 L129,167 L129,166 L130,166 L130,164 L131,164 L131,163 L132,163 L132,162 L133,162 L133,160 L134,160 L134,159 L135,159 L135,157 L136,157 L136,156 L137,156 L137,154 L138,154 L138,152 L139,152 L139,150 L140,150 L140,148 L141,148 L141,146 L142,146 L142,144 L143,144 L143,141 L144,141 L144,140 L145,140 L145,137 L146,137 L146,135 L147,135 L147,133 L148,133 L148,138 L147,138 L147,140 L146,140 L146,145 L145,145 L145,147 L144,147 L144,150 L143,150 L143,152 L142,152 L142,155 L141,155 L141,157 L140,157 L140,159 L139,159 L139,160 L138,160 L138,162 L137,162 L137,164 L136,164 L136,165 L135,165 L135,167 L134,167 L134,168 L133,168 L133,170 L132,170 L132,171 L131,171 L131,172 L130,172 L130,174 L129,174 L129,175 L128,175 L128,176 L127,176 L127,177 L126,177 L126,179 L125,179 L125,180 L124,180 L124,181 L123,181 L123,182 L122,182 L122,183 L121,183 L121,184 L120,184 L120,185 L119,185 L119,186 L117,186 L117,187 L116,187 L116,188 L115,188 L115,189 L114,189 L114,190 L113,190 L113,191 L112,191 L112,192 L110,192 L110,193 L109,193 L109,194 L108,194 L108,195 L106,195 L106,196 L105,196 L105,197 L103,197 L103,198 L102,198 L102,199 L100,199 L100,200 L99,200 L99,201 L97,201 L97,202 L95,202 L95,203 L94,203 L94,204 L92,204 L92,205 L90,205 L90,206 L88,206 L88,207 L86,207 L86,208 L83,208 L83,209 L81,209 L81,210 L79,210 L79,211 L76,211 L76,212 L73,212 L73,213 L72,213 L72,214 L67,214 L67,215 L64,215 L64,216 L62,216 L62,217 L56,217 L56,218 L55,218 L55,219 L47,219 L47,220 L44,220 L44,221 L33,221 L33,222 L8,222 L8,221 L-5,221 L-5,220 L-11,220 L-11,219 L-16,219 L-16,218 L-20,218 L-20,217 L-26,217 L-26,216 L-28,216 L-28,215 L-32,215 L-32,214 L-35,214 L-35,213 L-38,213 L-38,212 L-40,212 L-40,211 L-43,211 L-43,210 L-45,210 L-45,209 L-48,209 L-48,208 L-50,208 L-50,207 L-52,207 L-52,206 L-54,206 L-54,205 L-55,205 L-55,204 L-57,204 L-57,203 L-59,203 L-59,202 L-61,202 L-61,201 L-62,201 L-62,200 L-64,200 L-64,199 L-66,199 L-66,198 L-67,198 L-67,197 L-69,197 L-69,196 L-70,196 L-70,195 L-72,195 L-72,194 L-73,194 L-73,193 L-74,193 L-74,192 L-76,192 L-76,191 L-77,191 L-77,190 L-78,190 L-78,189 L-80,189 L-80,188 L-81,188 L-81,187 L-82,187 L-82,186 L-83,186 L-83,185 L-84,185 L-84,184 L-85,184 L-85,183 L-86,183 L-86,182 L-87,182 L-87,181 L-88,181 L-88,180 L-89,180 L-89,179 L-90,179 L-90,178 L-91,178 L-91,177 L-92,177 L-92,176 L-93,176 L-93,175 L-94,175 L-94,174 L-95,174 L-95,173 L-96,173 L-96,172 L-97,172 L-97,170 L-98,170 L-98,169 L-99,169 L-99,168 L-100,168 L-100,166 L-101,166 L-101,165 L-102,165 L-102,163 L-103,163 L-103,162 L-104,162 L-104,160 L-105,160 L-105,159 L-106,159 L-106,157 L-107,157 L-107,155 L-108,155 L-108,153 L-109,153 L-109,151 L-110,151 L-110,149 L-111,149 L-111,147 L-112,147 L-112,144 L-113,144 L-113,142 L-114,142 L-114,139 L-115,139 L-115,137 L-116,137 L-116,133 L-117,133 L-117,129 L-118,129 L-118,124 L-119,124 L-119,117 L-120,117 L-120,108 L-119,108 L-119,101 L-118,101 L-118,96 L-117,96 L-117,92 L-116,92 L-116,87 L-115,87 L-115,83 L-114,83 L-114,76 L-113,76 L-113,73 L-112,73 L-112,71 L-111,71 L-111,70 L-110,70 L-110,68 L-109,68 L-109,66 L-108,66 L-108,65 L-107,65 L-107,64 L-106,64 L-106,62 L-105,62 L-105,61 L-104,61 L-104,60 L-103,60 L-103,59 L-102,59 L-102,57 L-101,57 L-101,56 L-100,56 L-100,55 L-99,55 L-99,54 L-98,54 L-98,53 L-97,53 L-97,51 L-96,51 L-96,50 L-95,50 L-95,49 L-94,49 L-94,48 L-93,48 L-93,47 L-92,47 L-92,45 L-91,45 L-91,44 L-90,44 L-90,43 L-89,43 L-89,42 L-88,42 L-88,40 L-87,40 L-87,39 L-86,39 L-86,38 L-85,38 L-85,37 L-84,37 L-84,36 L-83,36 L-83,35 L-82,35 L-82,34 L-80,34 L-80,33 L-79,33 L-79,32 L-78,32 L-78,31 L-76,31 L-76,30 L-75,30 L-75,29 L-73,29 L-73,28 L-71,28 L-71,27 L-70,27 L-70,26 L-68,26 L-68,25 L-67,25 L-67,24 L-65,24 L-65,23 L-63,23 L-63,22 L-61,22 L-61,21 L-60,21 L-60,20 L-58,20 L-58,19 L-56,19 L-56,18 L-55,18 L-55,17 L-53,17 L-53,16 L-51,16 L-51,15 L-50,15 L-50,14 L-48,14 L-48,13 L-46,13 L-46,12 L-44,12 L-44,11 L-43,11 L-43,10 L-40,10 L-40,9 L-36,9 L-36,8 L-34,8 L-34,7 L-29,7 L-29,6 L-27,6 L-27,5 L-21,5 L-21,4 L-16,4 L-16,3 L-10,3 L-10,2 L-3,2 L-3,1 L0,1 Z " transform="translate(196,105)" style="fill: #D67C08;"/>
  <path d="M0,0 L2,0 L2,1 L1,1 L1,3 L0,3 L0,4 L-1,4 L-1,5 L-2,5 L-2,6 L-3,6 L-3,7 L-4,7 L-4,9 L-5,9 L-5,10 L-6,10 L-6,12 L-7,12 L-7,13 L-8,13 L-8,15 L-9,15 L-9,17 L-10,17 L-10,19 L-11,19 L-11,21 L-12,21 L-12,23 L-13,23 L-13,25 L-14,25 L-14,27 L-15,27 L-15,29 L-16,29 L-16,31 L-17,31 L-17,33 L-18,33 L-18,36 L-19,36 L-19,40 L-20,40 L-20,42 L-21,42 L-21,46 L-22,46 L-22,49 L-23,49 L-23,52 L-24,52 L-24,57 L-25,57 L-25,62 L-26,62 L-26,68 L-27,68 L-27,75 L-28,75 L-28,90 L-27,90 L-27,97 L-26,97 L-26,104 L-25,104 L-25,109 L-24,109 L-24,111 L-23,111 L-23,114 L-22,114 L-22,117 L-21,117 L-21,120 L-20,120 L-20,123 L-19,123 L-19,125 L-18,125 L-18,127 L-17,127 L-17,129 L-16,129 L-16,131 L-15,131 L-15,133 L-14,133 L-14,135 L-13,135 L-13,136 L-12,136 L-12,138 L-11,138 L-11,139 L-10,139 L-10,141 L-9,141 L-9,142 L-8,142 L-8,144 L-7,144 L-7,145 L-6,145 L-6,147 L-5,147 L-5,148 L-4,148 L-4,150 L-3,150 L-3,151 L-2,151 L-2,152 L-3,152 L-3,161 L-4,161 L-4,164 L-5,164 L-5,167 L-6,167 L-6,168 L-7,168 L-7,170 L-8,170 L-8,172 L-9,172 L-9,173 L-10,173 L-10,175 L-11,175 L-11,176 L-12,176 L-12,178 L-13,178 L-13,179 L-14,179 L-14,180 L-15,180 L-15,181 L-16,181 L-16,183 L-17,183 L-17,184 L-18,184 L-18,185 L-19,185 L-19,186 L-20,186 L-20,187 L-21,187 L-21,188 L-23,188 L-23,189 L-24,189 L-24,190 L-25,190 L-25,191 L-26,191 L-26,192 L-28,192 L-28,193 L-29,193 L-29,194 L-31,194 L-31,195 L-33,195 L-33,196 L-35,196 L-35,197 L-39,197 L-39,198 L-51,198 L-51,197 L-53,197 L-53,196 L-55,196 L-55,195 L-56,195 L-56,194 L-58,194 L-58,193 L-59,193 L-59,192 L-60,192 L-60,190 L-61,190 L-61,188 L-62,188 L-62,186 L-63,186 L-63,185 L-64,185 L-64,173 L-63,173 L-63,168 L-62,168 L-62,165 L-61,165 L-61,163 L-60,163 L-60,161 L-59,161 L-59,159 L-58,159 L-58,158 L-57,158 L-57,156 L-56,156 L-56,155 L-55,155 L-55,154 L-54,154 L-54,152 L-53,152 L-53,151 L-52,151 L-52,150 L-51,150 L-51,149 L-50,149 L-50,148 L-49,148 L-49,147 L-48,147 L-48,146 L-47,146 L-47,145 L-46,145 L-46,144 L-44,144 L-44,143 L-43,143 L-43,142 L-42,142 L-42,141 L-40,141 L-40,140 L-39,140 L-39,139 L-37,139 L-37,138 L-35,138 L-35,137 L-33,137 L-33,136 L-30,136 L-30,135 L-28,135 L-28,134 L-24,134 L-24,133 L-20,133 L-20,131 L-30,131 L-30,132 L-32,132 L-32,133 L-34,133 L-34,134 L-37,134 L-37,135 L-39,135 L-39,136 L-41,136 L-41,137 L-43,137 L-43,135 L-44,135 L-44,130 L-45,130 L-45,127 L-46,127 L-46,123 L-47,123 L-47,118 L-48,118 L-48,82 L-47,82 L-47,77 L-46,77 L-46,72 L-45,72 L-45,70 L-44,70 L-44,65 L-43,65 L-43,61 L-42,61 L-42,58 L-41,58 L-41,55 L-40,55 L-40,53 L-39,53 L-39,51 L-38,51 L-38,49 L-37,49 L-37,47 L-36,47 L-36,45 L-35,45 L-35,42 L-34,42 L-34,40 L-33,40 L-33,38 L-32,38 L-32,37 L-31,37 L-31,35 L-30,35 L-30,34 L-29,34 L-29,32 L-28,32 L-28,31 L-27,31 L-27,29 L-26,29 L-26,28 L-25,28 L-25,26 L-24,26 L-24,25 L-23,25 L-23,24 L-22,24 L-22,23 L-21,23 L-21,21 L-20,21 L-20,20 L-19,20 L-19,19 L-18,19 L-18,18 L-17,18 L-17,17 L-16,17 L-16,15 L-15,15 L-15,14 L-14,14 L-14,13 L-13,13 L-13,12 L-12,12 L-12,11 L-11,11 L-11,10 L-10,10 L-10,9 L-9,9 L-9,8 L-8,8 L-8,7 L-7,7 L-7,6 L-6,6 L-6,5 L-5,5 L-5,4 L-4,4 L-4,3 L-2,3 L-2,2 L-1,2 L-1,1 L0,1 Z " transform="translate(73,132)" style="fill: #F8A825;"/>
  <path d="M0,0 L5,0 L5,1 L6,1 L6,2 L7,2 L7,3 L8,3 L8,4 L9,4 L9,11 L8,11 L8,12 L7,12 L7,13 L3,13 L3,12 L2,12 L2,11 L1,11 L1,9 L0,9 L0,7 L-2,7 L-2,9 L-3,9 L-3,10 L-4,10 L-4,13 L-3,13 L-3,14 L-2,14 L-2,15 L-1,15 L-1,17 L0,17 L0,19 L1,19 L1,32 L0,32 L0,34 L-1,34 L-1,35 L-2,35 L-2,37 L-4,37 L-4,38 L-5,38 L-5,39 L-7,39 L-7,40 L-8,40 L-8,41 L-10,41 L-10,42 L-13,42 L-13,43 L-22,43 L-22,44 L-23,44 L-23,45 L-24,45 L-24,49 L-23,49 L-23,50 L-22,50 L-22,51 L-13,51 L-13,50 L-9,50 L-9,49 L7,49 L7,50 L9,50 L9,51 L11,51 L11,52 L12,52 L12,54 L13,54 L13,55 L14,55 L14,59 L15,59 L15,67 L14,67 L14,70 L13,70 L13,75 L6,75 L6,74 L2,74 L2,75 L-7,75 L-7,76 L-15,76 L-15,77 L-23,77 L-23,78 L-26,78 L-26,79 L-28,79 L-28,71 L-29,71 L-29,63 L-28,63 L-28,62 L-27,62 L-27,61 L-26,61 L-26,60 L-25,60 L-25,59 L-24,59 L-24,58 L-22,58 L-22,56 L-26,56 L-26,55 L-27,55 L-27,54 L-28,54 L-28,52 L-29,52 L-29,51 L-30,51 L-30,45 L-29,45 L-29,44 L-28,44 L-28,43 L-27,43 L-27,42 L-26,42 L-26,40 L-29,40 L-29,39 L-30,39 L-30,38 L-31,38 L-31,37 L-32,37 L-32,35 L-33,35 L-33,32 L-34,32 L-34,29 L-35,29 L-35,20 L-34,20 L-34,18 L-33,18 L-33,16 L-32,16 L-32,14 L-31,14 L-31,13 L-30,13 L-30,12 L-29,12 L-29,11 L-27,11 L-27,10 L-26,10 L-26,9 L-24,9 L-24,8 L-21,8 L-21,7 L-11,7 L-11,8 L-9,8 L-9,9 L-7,9 L-7,7 L-6,7 L-6,5 L-5,5 L-5,4 L-4,4 L-4,3 L-3,3 L-3,2 L-1,2 L-1,1 L0,1 Z " transform="translate(194,5)" style="fill: #F0B737;"/>
  <path d="M0,0 L8,0 L8,1 L12,1 L12,2 L14,2 L14,3 L16,3 L16,4 L18,4 L18,5 L20,5 L20,6 L21,6 L21,7 L22,7 L22,8 L23,8 L23,9 L24,9 L24,11 L25,11 L25,12 L26,12 L26,13 L27,13 L27,15 L28,15 L28,17 L29,17 L29,19 L30,19 L30,22 L31,22 L31,27 L32,27 L32,38 L31,38 L31,40 L30,40 L30,43 L29,43 L29,45 L28,45 L28,47 L27,47 L27,48 L26,48 L26,49 L25,49 L25,50 L24,50 L24,51 L23,51 L23,52 L22,52 L22,53 L21,53 L21,54 L19,54 L19,55 L15,55 L15,56 L2,56 L2,55 L0,55 L0,54 L-2,54 L-2,53 L-4,53 L-4,52 L-6,52 L-6,51 L-7,51 L-7,50 L-9,50 L-9,49 L-10,49 L-10,48 L-11,48 L-11,47 L-12,47 L-12,46 L-13,46 L-13,45 L-14,45 L-14,44 L-15,44 L-15,42 L-16,42 L-16,41 L-17,41 L-17,38 L-18,38 L-18,36 L-19,36 L-19,33 L-20,33 L-20,20 L-19,20 L-19,15 L-18,15 L-18,13 L-17,13 L-17,12 L-16,12 L-16,10 L-15,10 L-15,9 L-14,9 L-14,8 L-13,8 L-13,7 L-12,7 L-12,6 L-11,6 L-11,5 L-9,5 L-9,4 L-8,4 L-8,3 L-6,3 L-6,2 L-4,2 L-4,1 L0,1 Z " transform="translate(142,184)" style="fill: #3D251A;"/>
  <path d="M0,0 L12,0 L12,1 L16,1 L16,2 L19,2 L19,3 L21,3 L21,4 L22,4 L22,5 L24,5 L24,6 L25,6 L25,7 L26,7 L26,8 L27,8 L27,9 L28,9 L28,10 L29,10 L29,12 L30,12 L30,13 L31,13 L31,15 L32,15 L32,17 L33,17 L33,19 L34,19 L34,22 L35,22 L35,35 L34,35 L34,39 L33,39 L33,41 L32,41 L32,43 L31,43 L31,45 L30,45 L30,46 L29,46 L29,47 L28,47 L28,48 L27,48 L27,49 L26,49 L26,50 L25,50 L25,51 L24,51 L24,52 L22,52 L22,53 L20,53 L20,54 L17,54 L17,55 L3,55 L3,54 L0,54 L0,53 L-1,53 L-1,52 L-3,52 L-3,51 L-4,51 L-4,50 L-6,50 L-6,49 L-7,49 L-7,48 L-8,48 L-8,47 L-9,47 L-9,46 L-10,46 L-10,44 L-11,44 L-11,43 L-12,43 L-12,41 L-13,41 L-13,39 L-14,39 L-14,37 L-15,37 L-15,33 L-16,33 L-16,19 L-15,19 L-15,14 L-14,14 L-14,12 L-13,12 L-13,11 L-12,11 L-12,9 L-11,9 L-11,8 L-10,8 L-10,7 L-9,7 L-9,6 L-8,6 L-8,5 L-7,5 L-7,4 L-5,4 L-5,3 L-4,3 L-4,2 L-2,2 L-2,1 L0,1 Z " transform="translate(268,171)" style="fill: #3D251A;"/>
  <path d="M0,0 L2,0 L2,1 L1,1 L1,3 L0,3 L0,4 L-1,4 L-1,5 L-2,5 L-2,6 L-3,6 L-3,7 L-4,7 L-4,9 L-5,9 L-5,10 L-6,10 L-6,12 L-7,12 L-7,13 L-8,13 L-8,15 L-9,15 L-9,17 L-10,17 L-10,19 L-11,19 L-11,21 L-12,21 L-12,23 L-13,23 L-13,25 L-14,25 L-14,27 L-15,27 L-15,29 L-16,29 L-16,31 L-17,31 L-17,33 L-18,33 L-18,36 L-19,36 L-19,40 L-20,40 L-20,42 L-21,42 L-21,46 L-22,46 L-22,49 L-23,49 L-23,52 L-24,52 L-24,57 L-25,57 L-25,62 L-26,62 L-26,68 L-27,68 L-27,75 L-28,75 L-28,90 L-27,90 L-27,97 L-26,97 L-26,104 L-25,104 L-25,109 L-24,109 L-24,111 L-23,111 L-23,114 L-22,114 L-22,117 L-21,117 L-21,120 L-20,120 L-20,123 L-19,123 L-19,125 L-18,125 L-18,130 L-19,130 L-19,132 L-20,132 L-20,131 L-30,131 L-30,132 L-32,132 L-32,133 L-34,133 L-34,134 L-37,134 L-37,135 L-39,135 L-39,136 L-41,136 L-41,137 L-43,137 L-43,135 L-44,135 L-44,130 L-45,130 L-45,127 L-46,127 L-46,123 L-47,123 L-47,118 L-48,118 L-48,82 L-47,82 L-47,77 L-46,77 L-46,72 L-45,72 L-45,70 L-44,70 L-44,65 L-43,65 L-43,61 L-42,61 L-42,58 L-41,58 L-41,55 L-40,55 L-40,53 L-39,53 L-39,51 L-38,51 L-38,49 L-37,49 L-37,47 L-36,47 L-36,45 L-35,45 L-35,42 L-34,42 L-34,40 L-33,40 L-33,38 L-32,38 L-32,37 L-31,37 L-31,35 L-30,35 L-30,34 L-29,34 L-29,32 L-28,32 L-28,31 L-27,31 L-27,29 L-26,29 L-26,28 L-25,28 L-25,26 L-24,26 L-24,25 L-23,25 L-23,24 L-22,24 L-22,23 L-21,23 L-21,21 L-20,21 L-20,20 L-19,20 L-19,19 L-18,19 L-18,18 L-17,18 L-17,17 L-16,17 L-16,15 L-15,15 L-15,14 L-14,14 L-14,13 L-13,13 L-13,12 L-12,12 L-12,11 L-11,11 L-11,10 L-10,10 L-10,9 L-9,9 L-9,8 L-8,8 L-8,7 L-7,7 L-7,6 L-6,6 L-6,5 L-5,5 L-5,4 L-4,4 L-4,3 L-2,3 L-2,2 L-1,2 L-1,1 L0,1 Z " transform="translate(73,132)" style="fill: #D47E08;"/>
  <path d="M0,0 L5,0 L5,1 L6,1 L6,2 L7,2 L7,3 L8,3 L8,5 L9,5 L9,7 L10,7 L10,12 L9,12 L9,14 L8,14 L8,15 L7,15 L7,17 L6,17 L6,29 L5,29 L5,32 L4,32 L4,36 L3,36 L3,38 L2,38 L2,40 L1,40 L1,41 L0,41 L0,43 L-1,43 L-1,44 L-2,44 L-2,45 L-3,45 L-3,46 L-5,46 L-5,47 L-6,47 L-6,48 L-7,48 L-7,49 L-11,49 L-11,50 L-24,50 L-24,49 L-27,49 L-27,48 L-29,48 L-29,47 L-30,47 L-30,46 L-32,46 L-32,45 L-33,45 L-33,44 L-34,44 L-34,43 L-35,43 L-35,42 L-36,42 L-36,41 L-37,41 L-37,40 L-38,40 L-38,39 L-39,39 L-39,37 L-40,37 L-40,36 L-41,36 L-41,34 L-42,34 L-42,33 L-43,33 L-43,30 L-44,30 L-44,28 L-47,28 L-47,27 L-49,27 L-49,26 L-50,26 L-50,25 L-51,25 L-51,24 L-53,24 L-53,22 L-54,22 L-54,21 L-55,21 L-55,12 L-54,12 L-54,11 L-53,11 L-53,10 L-50,10 L-50,16 L-49,16 L-49,18 L-48,18 L-48,19 L-47,19 L-47,20 L-46,20 L-46,21 L-45,21 L-45,22 L-36,22 L-36,21 L-34,21 L-34,20 L-32,20 L-32,19 L-30,19 L-30,18 L-29,18 L-29,17 L-28,17 L-28,16 L-27,16 L-27,15 L-26,15 L-26,14 L-25,14 L-25,12 L-24,12 L-24,10 L-23,10 L-23,9 L-20,9 L-20,10 L-19,10 L-19,11 L-18,11 L-18,12 L-16,12 L-16,13 L-15,13 L-15,14 L-13,14 L-13,15 L-11,15 L-11,16 L-3,16 L-3,15 L0,15 L0,14 L1,14 L1,13 L2,13 L2,3 L1,3 L1,2 L0,2 Z " transform="translate(240,215)" style="fill: #5F2524;"/>
  <path d="M0,0 L1,0 L1,2 L2,2 L2,6 L3,6 L3,10 L4,10 L4,13 L5,13 L5,15 L6,15 L6,18 L7,18 L7,20 L8,20 L8,22 L9,22 L9,23 L10,23 L10,24 L11,24 L11,25 L12,25 L12,26 L13,26 L13,27 L14,27 L14,28 L16,28 L16,29 L18,29 L18,30 L20,30 L20,31 L23,31 L23,32 L27,32 L27,33 L32,33 L32,36 L27,36 L27,37 L24,37 L24,38 L22,38 L22,39 L20,39 L20,40 L18,40 L18,41 L16,41 L16,42 L15,42 L15,43 L13,43 L13,44 L12,44 L12,45 L11,45 L11,47 L10,47 L10,48 L9,48 L9,49 L8,49 L8,51 L7,51 L7,53 L6,53 L6,55 L5,55 L5,57 L4,57 L4,60 L3,60 L3,63 L2,63 L2,70 L1,70 L1,69 L0,69 L0,65 L-1,65 L-1,62 L-2,62 L-2,59 L-3,59 L-3,56 L-4,56 L-4,54 L-5,54 L-5,52 L-6,52 L-6,50 L-7,50 L-7,48 L-8,48 L-8,46 L-9,46 L-9,45 L-10,45 L-10,44 L-11,44 L-11,43 L-13,43 L-13,42 L-14,42 L-14,41 L-17,41 L-17,40 L-19,40 L-19,39 L-22,39 L-22,38 L-26,38 L-26,37 L-30,37 L-30,36 L-31,36 L-31,34 L-26,34 L-26,33 L-22,33 L-22,32 L-20,32 L-20,31 L-17,31 L-17,30 L-15,30 L-15,29 L-14,29 L-14,28 L-12,28 L-12,27 L-11,27 L-11,26 L-10,26 L-10,25 L-9,25 L-9,23 L-8,23 L-8,22 L-7,22 L-7,20 L-6,20 L-6,18 L-5,18 L-5,16 L-4,16 L-4,13 L-3,13 L-3,10 L-2,10 L-2,6 L-1,6 L-1,2 L0,2 Z " transform="translate(305,3)" style="fill: #FDD160;"/>
  <path d="M0,0 L1,0 L1,2 L0,2 L0,4 L-1,4 L-1,7 L-2,7 L-2,9 L-3,9 L-3,10 L-4,10 L-4,11 L-5,11 L-5,13 L-6,13 L-6,14 L-7,14 L-7,16 L-8,16 L-8,17 L-9,17 L-9,19 L-10,19 L-10,20 L-11,20 L-11,21 L-12,21 L-12,22 L-13,22 L-13,24 L-14,24 L-14,25 L-15,25 L-15,26 L-16,26 L-16,27 L-17,27 L-17,28 L-18,28 L-18,29 L-19,29 L-19,30 L-20,30 L-20,31 L-21,31 L-21,32 L-22,32 L-22,33 L-23,33 L-23,34 L-24,34 L-24,36 L-25,36 L-25,37 L-27,37 L-27,39 L-30,39 L-30,40 L-31,40 L-31,41 L-32,41 L-32,42 L-34,42 L-34,43 L-35,43 L-35,44 L-37,44 L-37,45 L-38,45 L-38,46 L-40,46 L-40,47 L-42,47 L-42,48 L-43,48 L-43,49 L-45,49 L-45,50 L-47,50 L-47,51 L-49,51 L-49,52 L-50,52 L-50,53 L-52,53 L-52,54 L-53,54 L-53,55 L-57,55 L-57,56 L-58,56 L-58,57 L-62,57 L-62,59 L-66,59 L-66,61 L-69,61 L-69,62 L-75,62 L-75,63 L-76,63 L-76,64 L-82,64 L-82,65 L-85,65 L-85,66 L-87,66 L-87,67 L-96,67 L-96,68 L-98,68 L-98,69 L-108,69 L-108,70 L-130,70 L-130,69 L-138,69 L-138,68 L-141,68 L-141,67 L-146,67 L-146,66 L-155,66 L-155,65 L-158,65 L-158,64 L-160,64 L-160,63 L-163,63 L-163,62 L-168,62 L-168,61 L-171,61 L-171,60 L-172,60 L-172,59 L-176,59 L-176,58 L-178,58 L-178,57 L-179,57 L-179,56 L-183,56 L-183,55 L-184,55 L-184,54 L-188,54 L-188,53 L-189,53 L-189,52 L-191,52 L-191,51 L-193,51 L-193,50 L-195,50 L-195,49 L-197,49 L-197,48 L-198,48 L-198,47 L-200,47 L-200,46 L-201,46 L-201,45 L-203,45 L-203,44 L-205,44 L-205,43 L-206,43 L-206,42 L-207,42 L-207,41 L-209,41 L-209,40 L-210,40 L-210,39 L-212,39 L-212,38 L-213,38 L-213,37 L-214,37 L-214,36 L-212,36 L-212,37 L-210,37 L-210,38 L-209,38 L-209,39 L-207,39 L-207,40 L-206,40 L-206,41 L-204,41 L-204,42 L-202,42 L-202,43 L-201,43 L-201,44 L-199,44 L-199,45 L-197,45 L-197,46 L-195,46 L-195,47 L-194,47 L-194,48 L-192,48 L-192,49 L-190,49 L-190,50 L-188,50 L-188,51 L-185,51 L-185,52 L-183,52 L-183,53 L-180,53 L-180,54 L-178,54 L-178,55 L-175,55 L-175,56 L-172,56 L-172,57 L-168,57 L-168,58 L-166,58 L-166,59 L-160,59 L-160,60 L-156,60 L-156,61 L-151,61 L-151,62 L-145,62 L-145,63 L-132,63 L-132,64 L-107,64 L-107,63 L-96,63 L-96,62 L-93,62 L-93,61 L-85,61 L-85,60 L-84,60 L-84,59 L-78,59 L-78,58 L-76,58 L-76,57 L-73,57 L-73,56 L-68,56 L-68,55 L-67,55 L-67,54 L-64,54 L-64,53 L-61,53 L-61,52 L-59,52 L-59,51 L-57,51 L-57,50 L-54,50 L-54,49 L-52,49 L-52,48 L-50,48 L-50,47 L-48,47 L-48,46 L-46,46 L-46,45 L-45,45 L-45,44 L-43,44 L-43,43 L-41,43 L-41,42 L-40,42 L-40,41 L-38,41 L-38,40 L-37,40 L-37,39 L-35,39 L-35,38 L-34,38 L-34,37 L-32,37 L-32,36 L-31,36 L-31,35 L-30,35 L-30,34 L-28,34 L-28,33 L-27,33 L-27,32 L-26,32 L-26,31 L-25,31 L-25,30 L-24,30 L-24,29 L-23,29 L-23,28 L-21,28 L-21,27 L-20,27 L-20,26 L-19,26 L-19,25 L-18,25 L-18,24 L-17,24 L-17,23 L-16,23 L-16,22 L-15,22 L-15,21 L-14,21 L-14,19 L-13,19 L-13,18 L-12,18 L-12,17 L-11,17 L-11,16 L-10,16 L-10,14 L-9,14 L-9,13 L-8,13 L-8,12 L-7,12 L-7,10 L-6,10 L-6,9 L-5,9 L-5,7 L-4,7 L-4,6 L-3,6 L-3,4 L-2,4 L-2,2 L-1,2 L-1,1 L0,1 Z " transform="translate(336,263)" style="fill: #FCE592;"/>
  <path d="M0,0 L2,0 L2,1 L1,1 L1,3 L0,3 L0,4 L-1,4 L-1,5 L-2,5 L-2,6 L-3,6 L-3,7 L-4,7 L-4,9 L-5,9 L-5,10 L-6,10 L-6,12 L-7,12 L-7,13 L-8,13 L-8,15 L-9,15 L-9,17 L-10,17 L-10,19 L-11,19 L-11,21 L-12,21 L-12,23 L-13,23 L-13,25 L-14,25 L-14,27 L-15,27 L-15,29 L-16,29 L-16,31 L-17,31 L-17,33 L-18,33 L-18,36 L-19,36 L-19,40 L-20,40 L-20,42 L-21,42 L-21,46 L-22,46 L-22,49 L-23,49 L-23,52 L-24,52 L-24,57 L-25,57 L-25,62 L-26,62 L-26,68 L-27,68 L-27,69 L-29,69 L-29,70 L-30,70 L-30,71 L-31,71 L-31,72 L-32,72 L-32,73 L-33,73 L-33,74 L-34,74 L-34,75 L-35,75 L-35,76 L-37,76 L-37,77 L-38,77 L-38,78 L-39,78 L-39,79 L-40,79 L-40,80 L-41,80 L-41,81 L-42,81 L-42,82 L-44,82 L-44,83 L-45,83 L-45,84 L-47,84 L-47,90 L-48,90 L-48,82 L-47,82 L-47,77 L-46,77 L-46,72 L-45,72 L-45,70 L-44,70 L-44,65 L-43,65 L-43,61 L-42,61 L-42,58 L-41,58 L-41,55 L-40,55 L-40,53 L-39,53 L-39,51 L-38,51 L-38,49 L-37,49 L-37,47 L-36,47 L-36,45 L-35,45 L-35,42 L-34,42 L-34,40 L-33,40 L-33,38 L-32,38 L-32,37 L-31,37 L-31,35 L-30,35 L-30,34 L-29,34 L-29,32 L-28,32 L-28,31 L-27,31 L-27,29 L-26,29 L-26,28 L-25,28 L-25,26 L-24,26 L-24,25 L-23,25 L-23,24 L-22,24 L-22,23 L-21,23 L-21,21 L-20,21 L-20,20 L-19,20 L-19,19 L-18,19 L-18,18 L-17,18 L-17,17 L-16,17 L-16,15 L-15,15 L-15,14 L-14,14 L-14,13 L-13,13 L-13,12 L-12,12 L-12,11 L-11,11 L-11,10 L-10,10 L-10,9 L-9,9 L-9,8 L-8,8 L-8,7 L-7,7 L-7,6 L-6,6 L-6,5 L-5,5 L-5,4 L-4,4 L-4,3 L-2,3 L-2,2 L-1,2 L-1,1 L0,1 Z " transform="translate(73,132)" style="fill: #D07C08;"/>
  <path d="M0,0 L1,0 L1,1 L2,1 L2,2 L3,2 L3,3 L4,3 L4,5 L5,5 L5,6 L6,6 L6,7 L7,7 L7,8 L8,8 L8,9 L9,9 L9,11 L10,11 L10,12 L11,12 L11,13 L12,13 L12,14 L13,14 L13,15 L14,15 L14,16 L15,16 L15,17 L16,17 L16,18 L17,18 L17,19 L18,19 L18,20 L19,20 L19,21 L20,21 L20,22 L22,22 L22,23 L23,23 L23,24 L24,24 L24,25 L26,25 L26,26 L27,26 L27,27 L28,27 L28,28 L29,28 L29,29 L31,29 L31,30 L25,30 L25,31 L24,31 L24,32 L23,32 L23,34 L22,34 L22,35 L21,35 L21,36 L20,36 L20,38 L19,38 L19,39 L18,39 L18,41 L17,41 L17,42 L16,42 L16,44 L15,44 L15,45 L14,45 L14,47 L13,47 L13,48 L12,48 L12,50 L11,50 L11,52 L10,52 L10,53 L7,53 L7,52 L6,52 L6,51 L5,51 L5,50 L3,50 L3,49 L2,49 L2,48 L1,48 L1,47 L0,47 L0,46 L-1,46 L-1,45 L-2,45 L-2,44 L-3,44 L-3,43 L-4,43 L-4,42 L-5,42 L-5,40 L-6,40 L-6,39 L-7,39 L-7,38 L-8,38 L-8,37 L-7,37 L-7,36 L-6,36 L-6,34 L-5,34 L-5,33 L-4,33 L-4,32 L-3,32 L-3,31 L-2,31 L-2,29 L-1,29 L-1,27 L0,27 L0,25 L1,25 L1,24 L2,24 L2,20 L3,20 L3,9 L2,9 L2,5 L1,5 L1,4 L0,4 Z " transform="translate(70,284)" style="fill: #D27C08;"/>
  <path d="M0,0 L14,0 L14,1 L16,1 L16,2 L17,2 L17,3 L21,3 L21,4 L22,4 L22,5 L23,5 L23,6 L26,6 L26,7 L27,7 L27,9 L28,9 L28,13 L27,13 L27,16 L26,16 L26,17 L25,17 L25,18 L24,18 L24,19 L22,19 L22,20 L20,20 L20,21 L18,21 L18,22 L13,22 L13,23 L-2,23 L-2,22 L-5,22 L-5,21 L-9,21 L-9,19 L-12,19 L-12,18 L-13,18 L-13,17 L-14,17 L-14,16 L-15,16 L-15,7 L-14,7 L-14,6 L-13,6 L-13,5 L-11,5 L-11,4 L-10,4 L-10,3 L-8,3 L-8,2 L-3,2 L-3,1 L0,1 Z " transform="translate(127,243)" style="fill: #FB9C69;"/>
  <path d="M0,0 L2,0 L2,4 L3,4 L3,7 L4,7 L4,10 L5,10 L5,12 L6,12 L6,14 L7,14 L7,16 L8,16 L8,17 L9,17 L9,18 L10,18 L10,19 L11,19 L11,20 L12,20 L12,21 L14,21 L14,22 L16,22 L16,23 L18,23 L18,24 L21,24 L21,25 L25,25 L25,26 L27,26 L27,28 L23,28 L23,29 L19,29 L19,30 L16,30 L16,31 L15,31 L15,32 L14,32 L14,33 L12,33 L12,34 L11,34 L11,36 L10,36 L10,37 L9,37 L9,38 L8,38 L8,39 L7,39 L7,41 L6,41 L6,43 L5,43 L5,48 L4,48 L4,51 L3,51 L3,54 L2,54 L2,53 L1,53 L1,50 L0,50 L0,46 L-1,46 L-1,44 L-2,44 L-2,43 L-3,43 L-3,40 L-4,40 L-4,38 L-5,38 L-5,37 L-6,37 L-6,35 L-8,35 L-8,34 L-9,34 L-9,33 L-10,33 L-10,32 L-12,32 L-12,31 L-15,31 L-15,30 L-20,30 L-20,29 L-24,29 L-24,27 L-22,27 L-22,26 L-18,26 L-18,25 L-15,25 L-15,24 L-13,24 L-13,23 L-11,23 L-11,22 L-9,22 L-9,21 L-8,21 L-8,20 L-7,20 L-7,19 L-6,19 L-6,18 L-5,18 L-5,16 L-4,16 L-4,14 L-3,14 L-3,12 L-2,12 L-2,9 L-1,9 L-1,5 L0,5 Z " transform="translate(356,50)" style="fill: #FDD365;"/>
  <path d="M0,0 L19,0 L19,1 L22,1 L22,2 L23,2 L23,3 L25,3 L25,4 L26,4 L26,5 L27,5 L27,7 L28,7 L28,12 L27,12 L27,13 L26,13 L26,14 L25,14 L25,15 L24,15 L24,16 L23,16 L23,17 L22,17 L22,18 L20,18 L20,20 L16,20 L16,21 L12,21 L12,22 L6,22 L6,23 L-2,23 L-2,22 L-9,22 L-9,21 L-10,21 L-10,20 L-11,20 L-11,19 L-13,19 L-13,17 L-14,17 L-14,9 L-13,9 L-13,8 L-12,8 L-12,7 L-10,7 L-10,5 L-8,5 L-8,4 L-6,4 L-6,3 L-5,3 L-5,2 L0,2 Z " transform="translate(304,221)" style="fill: #FB9868;"/>
  <path d="M0,0 L7,0 L7,1 L9,1 L9,2 L11,2 L11,3 L12,3 L12,4 L13,4 L13,5 L14,5 L14,7 L15,7 L15,12 L16,12 L16,19 L15,19 L15,20 L14,20 L14,22 L12,22 L12,23 L11,23 L11,24 L8,24 L8,25 L-2,25 L-2,24 L-3,24 L-3,23 L-4,23 L-4,22 L-5,22 L-5,21 L-6,21 L-6,18 L-7,18 L-7,17 L-8,17 L-8,7 L-7,7 L-7,6 L-6,6 L-6,5 L-5,5 L-5,4 L-4,4 L-4,3 L-3,3 L-3,2 L-2,2 L-2,1 L0,1 Z " transform="translate(173,17)" style="fill: #4A1A06;"/>
  <path d="M0,0 L10,0 L10,1 L15,1 L15,2 L17,2 L17,3 L19,3 L19,4 L20,4 L20,5 L21,5 L21,8 L20,8 L20,10 L19,10 L19,12 L18,12 L18,13 L17,13 L17,14 L16,14 L16,15 L15,15 L15,16 L12,16 L12,17 L11,17 L11,18 L0,18 L0,17 L-2,17 L-2,16 L-4,16 L-4,15 L-5,15 L-5,14 L-6,14 L-6,13 L-7,13 L-7,12 L-8,12 L-8,11 L-9,11 L-9,10 L-10,10 L-10,9 L-11,9 L-11,6 L-10,6 L-10,5 L-9,5 L-9,4 L-7,4 L-7,3 L-6,3 L-6,2 L-4,2 L-4,1 L0,1 Z " transform="translate(217,242)" style="fill: #F35971;"/>
  <path d="M0,0 L14,0 L14,1 L15,1 L15,2 L17,2 L17,9 L16,9 L16,11 L15,11 L15,12 L14,12 L14,13 L13,13 L13,14 L3,14 L3,15 L-7,15 L-7,16 L-12,16 L-12,15 L-13,15 L-13,14 L-14,14 L-14,12 L-15,12 L-15,7 L-14,7 L-14,6 L-13,6 L-13,5 L-12,5 L-12,4 L-10,4 L-10,3 L-8,3 L-8,2 L-5,2 L-5,1 L0,1 Z " transform="translate(186,62)" style="fill: #4A1B07;"/>
  <path d="M0,0 L11,0 L11,3 L10,3 L10,6 L9,6 L9,9 L8,9 L8,11 L7,11 L7,13 L6,13 L6,16 L5,16 L5,19 L4,19 L4,21 L3,21 L3,24 L2,24 L2,27 L1,27 L1,28 L34,28 L34,29 L-2,29 L-2,28 L-10,28 L-10,27 L-15,27 L-15,26 L-11,26 L-11,23 L-10,23 L-10,21 L-9,21 L-9,19 L-8,19 L-8,16 L-7,16 L-7,14 L-6,14 L-6,12 L-5,12 L-5,9 L-4,9 L-4,7 L-3,7 L-3,5 L-2,5 L-2,3 L-1,3 L-1,1 L0,1 Z " transform="translate(190,355)" style="fill: #B85D08;"/>
  <path d="M0,0 L1,0 L1,2 L2,2 L2,3 L1,3 L1,6 L0,6 L0,9 L-1,9 L-1,13 L-2,13 L-2,15 L-3,15 L-3,19 L-4,19 L-4,21 L-5,21 L-5,25 L-6,25 L-6,26 L-7,26 L-7,27 L-8,27 L-8,28 L-6,28 L-6,29 L-11,29 L-11,30 L-16,30 L-16,31 L-20,31 L-20,30 L-18,30 L-18,29 L-19,29 L-19,28 L-18,28 L-18,25 L-17,25 L-17,23 L-16,23 L-16,19 L-15,19 L-15,15 L-14,15 L-14,13 L-13,13 L-13,10 L-12,10 L-12,6 L-11,6 L-11,3 L-10,3 L-10,2 L-3,2 L-3,1 L0,1 Z " transform="translate(257,351)" style="fill: #BE5F06;"/>
  <path d="M0,0 L2,0 L2,1 L1,1 L1,3 L0,3 L0,4 L-1,4 L-1,5 L-2,5 L-2,6 L-3,6 L-3,7 L-4,7 L-4,9 L-5,9 L-5,10 L-6,10 L-6,12 L-7,12 L-7,13 L-8,13 L-8,15 L-9,15 L-9,17 L-10,17 L-10,19 L-11,19 L-11,21 L-12,21 L-12,23 L-13,23 L-13,25 L-14,25 L-14,27 L-15,27 L-15,29 L-16,29 L-16,31 L-17,31 L-17,33 L-18,33 L-18,34 L-19,34 L-19,35 L-21,35 L-21,36 L-22,36 L-22,37 L-23,37 L-23,38 L-24,38 L-24,39 L-26,39 L-26,40 L-27,40 L-27,41 L-28,41 L-28,42 L-30,42 L-30,43 L-33,43 L-33,44 L-35,44 L-35,42 L-34,42 L-34,40 L-33,40 L-33,38 L-32,38 L-32,37 L-31,37 L-31,35 L-30,35 L-30,34 L-29,34 L-29,32 L-28,32 L-28,31 L-27,31 L-27,29 L-26,29 L-26,28 L-25,28 L-25,26 L-24,26 L-24,25 L-23,25 L-23,24 L-22,24 L-22,23 L-21,23 L-21,21 L-20,21 L-20,20 L-19,20 L-19,19 L-18,19 L-18,18 L-17,18 L-17,17 L-16,17 L-16,15 L-15,15 L-15,14 L-14,14 L-14,13 L-13,13 L-13,12 L-12,12 L-12,11 L-11,11 L-11,10 L-10,10 L-10,9 L-9,9 L-9,8 L-8,8 L-8,7 L-7,7 L-7,6 L-6,6 L-6,5 L-5,5 L-5,4 L-4,4 L-4,3 L-2,3 L-2,2 L-1,2 L-1,1 L0,1 Z " transform="translate(73,132)" style="fill: #AD5B06;"/>
  <path d="M0,0 L6,0 L6,1 L10,1 L10,4 L9,4 L9,6 L8,6 L8,8 L7,8 L7,9 L6,9 L6,11 L5,11 L5,13 L4,13 L4,15 L3,15 L3,17 L2,17 L2,19 L1,19 L1,21 L0,21 L0,23 L-1,23 L-1,25 L-2,25 L-2,27 L-3,27 L-3,29 L-6,29 L-6,28 L-8,28 L-8,27 L-12,27 L-12,26 L-15,26 L-15,25 L-13,25 L-13,24 L-12,24 L-12,21 L-11,21 L-11,19 L-10,19 L-10,17 L-9,17 L-9,15 L-8,15 L-8,13 L-7,13 L-7,12 L-6,12 L-6,10 L-5,10 L-5,8 L-4,8 L-4,6 L-3,6 L-3,4 L-2,4 L-2,2 L-1,2 L-1,1 L0,1 Z " transform="translate(151,346)" style="fill: #BC5F07;"/>
  <path d="M0,0 L6,0 L6,1 L7,1 L7,2 L8,2 L8,7 L7,7 L7,9 L6,9 L6,10 L5,10 L5,11 L4,11 L4,13 L3,13 L3,14 L2,14 L2,16 L1,16 L1,17 L0,17 L0,19 L-1,19 L-1,20 L-2,20 L-2,21 L-3,21 L-3,23 L-4,23 L-4,24 L-5,24 L-5,26 L-6,26 L-6,27 L-7,27 L-7,29 L-8,29 L-8,30 L-10,30 L-10,29 L-11,29 L-11,28 L-12,28 L-12,27 L-14,27 L-14,26 L-15,26 L-15,25 L-16,25 L-16,24 L-17,24 L-17,23 L-15,23 L-15,22 L-14,22 L-14,20 L-13,20 L-13,18 L-12,18 L-12,17 L-11,17 L-11,15 L-10,15 L-10,14 L-9,14 L-9,12 L-8,12 L-8,11 L-7,11 L-7,9 L-6,9 L-6,8 L-5,8 L-5,6 L-4,6 L-4,5 L-3,5 L-3,4 L-2,4 L-2,2 L-1,2 L-1,1 L0,1 Z " transform="translate(95,314)" style="fill: #B95D07;"/>
  <path d="M0,0 L2,0 L2,1 L3,1 L3,3 L2,3 L2,5 L1,5 L1,9 L0,9 L0,14 L-1,14 L-1,18 L-2,18 L-2,22 L-3,22 L-3,23 L-4,23 L-4,24 L-5,24 L-5,25 L-6,25 L-6,26 L-5,26 L-5,27 L-7,27 L-7,28 L-9,28 L-9,29 L-11,29 L-11,30 L-13,30 L-13,31 L-15,31 L-15,32 L-17,32 L-17,31 L-16,31 L-16,30 L-14,30 L-14,24 L-13,24 L-13,20 L-12,20 L-12,16 L-11,16 L-11,12 L-10,12 L-10,8 L-9,8 L-9,5 L-8,5 L-8,4 L-7,4 L-7,3 L-5,3 L-5,2 L-2,2 L-2,1 L0,1 Z " transform="translate(296,339)" style="fill: #B95D07;"/>
  <path d="M0,0 L2,0 L2,4 L1,4 L1,8 L0,8 L0,11 L-1,11 L-1,18 L-2,18 L-2,20 L-1,20 L-1,21 L0,21 L0,22 L-1,22 L-1,23 L-2,23 L-2,24 L-3,24 L-3,25 L-5,25 L-5,26 L-6,26 L-6,27 L-7,27 L-7,28 L-8,28 L-8,29 L-10,29 L-10,30 L-11,30 L-11,31 L-13,31 L-13,25 L-12,25 L-12,21 L-11,21 L-11,16 L-10,16 L-10,13 L-9,13 L-9,10 L-8,10 L-8,6 L-6,6 L-6,5 L-4,5 L-4,4 L-3,4 L-3,3 L-2,3 L-2,2 L-1,2 L-1,1 L0,1 Z " transform="translate(326,321)" style="fill: #BB6008;"/>
  <path d="M0,0 L2,0 L2,6 L1,6 L1,12 L0,12 L0,13 L-2,13 L-2,14 L-3,14 L-3,15 L-4,15 L-4,16 L-5,16 L-5,17 L-6,17 L-6,18 L-7,18 L-7,19 L-8,19 L-8,20 L-10,20 L-10,21 L-11,21 L-11,22 L-12,22 L-12,23 L-13,23 L-13,24 L-14,24 L-14,25 L-15,25 L-15,26 L-17,26 L-17,27 L-18,27 L-18,28 L-20,28 L-20,34 L-21,34 L-21,26 L-20,26 L-20,21 L-19,21 L-19,16 L-18,16 L-18,14 L-17,14 L-17,16 L-15,16 L-15,15 L-14,15 L-14,14 L-13,14 L-13,13 L-12,13 L-12,12 L-10,12 L-10,11 L-9,11 L-9,10 L-8,10 L-8,9 L-7,9 L-7,8 L-6,8 L-6,7 L-5,7 L-5,5 L-4,5 L-4,4 L-3,4 L-3,3 L-2,3 L-2,2 L-1,2 L-1,1 L0,1 Z " transform="translate(46,188)" style="fill: #B96108;"/>
  <path d="M0,0 L6,0 L6,1 L7,1 L7,2 L9,2 L9,3 L10,3 L10,4 L11,4 L11,6 L12,6 L12,12 L11,12 L11,13 L10,13 L10,15 L8,15 L8,16 L6,16 L6,17 L0,17 L0,16 L-1,16 L-1,15 L-2,15 L-2,14 L-3,14 L-3,13 L-4,13 L-4,11 L-5,11 L-5,5 L-4,5 L-4,3 L-3,3 L-3,2 L-2,2 L-2,1 L0,1 Z " transform="translate(269,180)" style="fill: #F5F3F1;"/>
  <path d="M0,0 L3,0 L3,1 L4,1 L4,4 L3,4 L3,5 L2,5 L2,6 L1,6 L1,7 L-1,7 L-1,8 L-3,8 L-3,9 L-4,9 L-4,10 L-5,10 L-5,11 L-6,11 L-6,12 L-7,12 L-7,13 L-9,13 L-9,14 L-10,14 L-10,15 L-11,15 L-11,16 L-12,16 L-12,17 L-13,17 L-13,18 L-14,18 L-14,19 L-15,19 L-15,21 L-16,21 L-16,22 L-17,22 L-17,23 L-18,23 L-18,24 L-19,24 L-19,25 L-22,25 L-22,17 L-21,17 L-21,16 L-20,16 L-20,15 L-19,15 L-19,13 L-18,13 L-18,12 L-17,12 L-17,11 L-16,11 L-16,10 L-15,10 L-15,9 L-14,9 L-14,8 L-13,8 L-13,7 L-12,7 L-12,6 L-11,6 L-11,5 L-9,5 L-9,4 L-8,4 L-8,3 L-7,3 L-7,2 L-3,2 L-3,1 L0,1 Z " transform="translate(38,271)" style="fill: #F9D37B;"/>
  <path d="M0,0 L7,0 L7,1 L9,1 L9,2 L10,2 L10,3 L11,3 L11,4 L12,4 L12,12 L11,12 L11,14 L10,14 L10,15 L8,15 L8,16 L1,16 L1,15 L-1,15 L-1,13 L-2,13 L-2,12 L-3,12 L-3,11 L-4,11 L-4,4 L-3,4 L-3,3 L-2,3 L-2,2 L-1,2 L-1,1 L0,1 Z " transform="translate(142,194)" style="fill: #F7F5F2;"/>
  <path d="M0,0 L8,0 L8,1 L9,1 L9,2 L10,2 L10,11 L8,11 L8,12 L7,12 L7,13 L0,13 L0,12 L-1,12 L-1,9 L-2,9 L-2,2 L-1,2 L-1,1 L0,1 Z " transform="translate(173,24)" style="fill: #000000;"/>
  <path d="M0,0 L1,0 L1,2 L3,2 L3,4 L2,4 L2,7 L1,7 L1,10 L0,10 L0,13 L-1,13 L-1,16 L-2,16 L-2,21 L-3,21 L-3,18 L-4,18 L-4,19 L-5,19 L-5,20 L-6,20 L-6,22 L-7,22 L-7,23 L-8,23 L-8,24 L-9,24 L-9,25 L-10,25 L-10,26 L-11,26 L-11,29 L-13,29 L-13,27 L-14,27 L-14,24 L-13,24 L-13,23 L-12,23 L-12,21 L-11,21 L-11,20 L-10,20 L-10,19 L-9,19 L-9,17 L-8,17 L-8,16 L-7,16 L-7,14 L-6,14 L-6,12 L-5,12 L-5,10 L-4,10 L-4,9 L-3,9 L-3,7 L-2,7 L-2,4 L-1,4 L-1,2 L0,2 Z " transform="translate(367,267)" style="fill: #A2550A;"/>
  <path d="M0,0 L3,0 L3,3 L4,3 L4,5 L5,5 L5,10 L4,10 L4,12 L3,12 L3,11 L-7,11 L-7,12 L-9,12 L-9,13 L-11,13 L-11,14 L-13,14 L-13,13 L-12,13 L-12,12 L-11,12 L-11,11 L-10,11 L-10,10 L-9,10 L-9,9 L-8,9 L-8,8 L-7,8 L-7,7 L-6,7 L-6,6 L-5,6 L-5,5 L-4,5 L-4,4 L-3,4 L-3,3 L-2,3 L-2,2 L-1,2 L-1,1 L0,1 Z " transform="translate(50,252)" style="fill: #C3660A;"/>
  <path d="M0,0 L5,0 L5,3 L4,3 L4,4 L3,4 L3,5 L2,5 L2,6 L-1,6 L-1,7 L-6,7 L-6,8 L-12,8 L-12,7 L-14,7 L-14,4 L-12,4 L-12,3 L-8,3 L-8,2 L-2,2 L-2,1 L0,1 Z " transform="translate(192,67)" style="fill: #000000;"/>
  <path d="M0,0 L1,0 L1,2 L0,2 L0,4 L-1,4 L-1,7 L-2,7 L-2,9 L-3,9 L-3,10 L-4,10 L-4,11 L-5,11 L-5,13 L-6,13 L-6,14 L-7,14 L-7,16 L-8,16 L-8,17 L-9,17 L-9,19 L-10,19 L-10,20 L-11,20 L-11,21 L-12,21 L-12,22 L-13,22 L-13,24 L-14,24 L-14,25 L-15,25 L-15,26 L-16,26 L-16,27 L-17,27 L-17,25 L-18,25 L-18,24 L-17,24 L-17,23 L-16,23 L-16,22 L-15,22 L-15,21 L-14,21 L-14,19 L-13,19 L-13,18 L-12,18 L-12,17 L-11,17 L-11,16 L-10,16 L-10,14 L-9,14 L-9,13 L-8,13 L-8,12 L-7,12 L-7,10 L-6,10 L-6,9 L-5,9 L-5,7 L-4,7 L-4,6 L-3,6 L-3,4 L-2,4 L-2,2 L-1,2 L-1,1 L0,1 Z " transform="translate(336,263)" style="fill: #FCDF80;"/>
</svg>